<?xml version="1.0" standalone="no"?>
<!DOCTYPE svg PUBLIC "-//W3C//DTD SVG 1.1//EN" "http://www.w3.org/Graphics/SVG/1.1/DTD/svg11.dtd" >
<svg xmlns="http://www.w3.org/2000/svg">
<metadata>Generated by IcoMoon</metadata>
<defs>
<font id="Material-Design-Icon" horiz-adv-x="1024">
<font-face units-per-em="1024" ascent="960" descent="-64" />
<missing-glyph horiz-adv-x="1024" />
<glyph unicode="&#x20;" horiz-adv-x="512" d="" />
<glyph unicode="&#xe900;" glyph-name="checkbox_blank_circle" d="M512 853.334c-235.52 0-426.667-191.147-426.667-426.667s191.147-426.667 426.667-426.667c235.52 0 426.667 191.147 426.667 426.667s-191.147 426.667-426.667 426.667z" />
<glyph unicode="&#xe901;" glyph-name="checkbox_blank" d="M810.667 810.667h-597.333c-47.36 0-85.333-37.973-85.333-85.333v-597.333c0-46.933 38.4-85.333 85.333-85.333h597.333c46.933 0 85.333 38.4 85.333 85.333v597.333c0 47.36-38.4 85.333-85.333 85.333z" />
<glyph unicode="&#xe902;" glyph-name="checkbox_marked_circle_outline" d="M853.333 426.667c0-188.587-152.747-341.333-341.333-341.333s-341.333 152.747-341.333 341.333c0 188.587 152.747 341.333 341.333 341.333 32.427 0 64-4.693 93.867-13.227l66.987 66.987c-49.493 20.48-103.68 31.573-160.853 31.573-235.52 0-426.667-191.147-426.667-426.667s191.147-426.667 426.667-426.667c235.52 0 426.667 191.147 426.667 426.667zM337.493 508.587l-60.16-60.587 192-192 426.667 426.667-60.16 60.587-366.507-366.507-131.84 131.84z" />
<glyph unicode="&#xe903;" glyph-name="checkbox_marked_circle" d="M426.667 213.334l-213.333 213.333 60.16 60.587 153.173-153.173 323.84 323.84 60.16-60.587zM512 853.334c-235.52 0-426.667-191.147-426.667-426.667s191.147-426.667 426.667-426.667c235.52 0 426.667 191.147 426.667 426.667s-191.147 426.667-426.667 426.667z" />
<glyph unicode="&#xe904;" glyph-name="checkbox_marked_outline" d="M810.667 128h-597.333v597.333h426.667v85.333h-426.667c-47.36 0-85.333-37.973-85.333-85.333v-597.333c0-46.933 38.4-85.333 85.333-85.333h597.333c46.933 0 85.333 38.4 85.333 85.333v341.333h-85.333zM337.493 508.587l-60.16-60.587 192-192 426.667 426.667-60.16 60.587-366.507-366.507-131.84 131.84z" />
<glyph unicode="&#xe905;" glyph-name="checkbox_multiple_blank_outline" d="M853.333 256v512h-512v-512h512zM938.667 256c0-46.933-38.4-85.333-85.333-85.333h-512c-47.36 0-85.333 38.4-85.333 85.333v512c0 47.36 37.973 85.333 85.333 85.333h512c46.933 0 85.333-38.4 85.333-85.333v-512zM682.667 85.334v-85.333h-512c-46.933 0-85.333 38.4-85.333 85.333v554.667h85.333v-554.667h512z" />
<glyph unicode="&#xe906;" glyph-name="checkbox_multiple_blank" d="M938.667 256c0-46.933-38.4-85.333-85.333-85.333h-512c-47.36 0-85.333 38.4-85.333 85.333v512c0 47.36 37.973 85.333 85.333 85.333h512c46.933 0 85.333-38.4 85.333-85.333v-512zM682.667 85.334v-85.333h-512c-46.933 0-85.333 38.4-85.333 85.333v554.667h85.333v-554.667h512z" />
<glyph unicode="&#xe907;" glyph-name="checkbox_multiple_marked_outline" d="M853.333 256v256h85.333v-256c0-46.933-38.4-85.333-85.333-85.333h-512c-47.36 0-85.333 38.4-85.333 85.333v512c0 47.36 37.973 85.333 85.333 85.333h341.333v-85.333h-341.333v-512h512zM465.493 636.587l131.84-131.84 281.173 281.173 60.16-60.587-341.333-341.333-192 192 60.16 60.587zM682.667 85.334v-85.333h-512c-46.933 0-85.333 38.4-85.333 85.333v554.667h85.333v-554.667h512z" />
<glyph unicode="&#xe908;" glyph-name="checkbox_multiple_marked" d="M938.667 256c0-46.933-38.4-85.333-85.333-85.333h-512c-47.36 0-85.333 38.4-85.333 85.333v512c0 47.36 37.973 85.333 85.333 85.333h512c46.933 0 85.333-38.4 85.333-85.333v-512zM682.667 85.334v-85.333h-512c-46.933 0-85.333 38.4-85.333 85.333v554.667h85.333v-554.667h512zM554.667 341.334l298.667 298.667-60.16 60.16-238.507-238.080-131.84 131.413-60.16-60.16 192-192z" />
<glyph unicode="&#xe909;" glyph-name="check_box_outline_blank" d="M810.667 725.334v-597.333h-597.333v597.333h597.333zM810.667 810.667h-597.333c-46.933 0-85.333-38.4-85.333-85.333v-597.333c0-46.933 38.4-85.333 85.333-85.333h597.333c46.933 0 85.333 38.4 85.333 85.333v597.333c0 46.933-38.4 85.333-85.333 85.333z" />
<glyph unicode="&#xe90a;" glyph-name="check_box" d="M810.667 810.667h-597.333c-47.36 0-85.333-38.4-85.333-85.333v-597.333c0-46.933 37.973-85.333 85.333-85.333h597.333c47.36 0 85.333 38.4 85.333 85.333v597.333c0 46.933-37.973 85.333-85.333 85.333zM426.667 213.334l-213.333 213.333 60.16 60.16 153.173-152.747 323.84 323.84 60.16-60.587-384-384z" />
<glyph unicode="&#xe90b;" glyph-name="indeterminate_check_box" d="M810.667 810.667h-597.333c-46.933 0-85.333-38.4-85.333-85.333v-597.333c0-46.933 38.4-85.333 85.333-85.333h597.333c46.933 0 85.333 38.4 85.333 85.333v597.333c0 46.933-38.4 85.333-85.333 85.333zM725.333 384h-426.667v85.333h426.667v-85.333z" />
<glyph unicode="&#xe90c;" glyph-name="radio_button_checked" d="M512 640c-117.76 0-213.333-95.573-213.333-213.333s95.573-213.333 213.333-213.333 213.333 95.573 213.333 213.333-95.573 213.333-213.333 213.333zM512 853.334c-235.52 0-426.667-191.147-426.667-426.667s191.147-426.667 426.667-426.667 426.667 191.147 426.667 426.667-191.147 426.667-426.667 426.667zM512 85.334c-188.587 0-341.333 152.747-341.333 341.333s152.747 341.333 341.333 341.333 341.333-152.747 341.333-341.333-152.747-341.333-341.333-341.333z" />
<glyph unicode="&#xe90d;" glyph-name="radio_button_unchecked" d="M512 853.334c-235.52 0-426.667-191.147-426.667-426.667s191.147-426.667 426.667-426.667 426.667 191.147 426.667 426.667-191.147 426.667-426.667 426.667zM512 85.334c-188.587 0-341.333 152.747-341.333 341.333s152.747 341.333 341.333 341.333 341.333-152.747 341.333-341.333-152.747-341.333-341.333-341.333z" />
<glyph unicode="&#xe90e;" glyph-name="star_border" d="M938.667 544.427l-306.773 26.453-119.893 282.453-119.893-282.88-306.773-26.027 232.96-201.813-69.973-299.947 263.68 159.147 263.68-159.147-69.547 299.947 232.533 201.813zM512 281.6l-160.427-96.853 42.667 182.613-141.653 122.88 186.88 16.213 72.533 171.947 72.96-172.373 186.88-16.213-141.653-122.88 42.667-182.613-160.853 97.28z" />
<glyph unicode="&#xe90f;" glyph-name="star_half" d="M938.667 523.094l-306.773 26.453-119.893 282.453-119.893-282.88-306.773-26.027 232.96-201.813-69.973-299.947 263.68 159.147 263.68-159.147-69.547 299.947 232.533 201.813zM512 260.267v396.8l72.96-172.373 186.88-16.213-141.653-122.88 42.667-182.613-160.853 97.28z" />
<glyph unicode="&#xe910;" glyph-name="star" d="M512 201.814l263.68-159.147-69.973 299.947 232.96 201.813-306.773 26.027-119.893 282.88-119.893-282.88-306.773-26.027 232.96-201.813-69.973-299.947z" />
<glyph unicode="&#xe911;" glyph-name="account_alert" d="M426.667 768c94.293 0 170.667-76.373 170.667-170.667s-76.373-170.667-170.667-170.667c-94.293 0-170.667 76.373-170.667 170.667s76.373 170.667 170.667 170.667zM426.667 341.334c188.587 0 341.333-76.373 341.333-170.667v-85.333h-682.667v85.333c0 94.293 152.747 170.667 341.333 170.667zM853.333 426.667v213.333h85.333v-213.333h-85.333zM853.333 256v85.333h85.333v-85.333h-85.333z" />
<glyph unicode="&#xe912;" glyph-name="account_check" d="M384 725.334c82.347 0 149.333-66.987 149.333-149.333s-66.987-149.333-149.333-149.333c-82.347 0-149.333 66.987-149.333 149.333s66.987 149.333 149.333 149.333zM384 352c165.12 0 298.667-66.987 298.667-149.333v-74.667h-597.333v74.667c0 82.347 133.547 149.333 298.667 149.333zM725.333 398.507l-117.333 128 49.493 49.493 67.84-67.84 153.173 153.173 49.493-60.16-202.667-202.667z" />
<glyph unicode="&#xe913;" glyph-name="account_key" d="M469.333 512v-85.333h-42.667v-85.333h-85.333v85.333h-92.587c-17.493-49.92-64.853-85.333-120.747-85.333-70.827 0-128 57.173-128 128s57.173 128 128 128c55.893 0 103.253-35.413 120.747-85.333h220.587zM128 512c-23.467 0-42.667-19.2-42.667-42.667s19.2-42.667 42.667-42.667c23.467 0 42.667 19.2 42.667 42.667s-19.2 42.667-42.667 42.667zM682.667 341.334c113.92 0 341.333-57.173 341.333-170.667v-85.333h-682.667v85.333c0 113.493 227.413 170.667 341.333 170.667zM682.667 426.667c-94.293 0-170.667 76.373-170.667 170.667s76.373 170.667 170.667 170.667c94.293 0 170.667-76.373 170.667-170.667s-76.373-170.667-170.667-170.667z" />
<glyph unicode="&#xe914;" glyph-name="account_minus" d="M640 341.334c-113.92 0-341.333-56.747-341.333-170.667v-85.333h682.667v85.333c0 113.92-227.413 170.667-341.333 170.667zM42.667 512v-85.333h341.333v85.333zM640 426.667c94.293 0 170.667 76.373 170.667 170.667s-76.373 170.667-170.667 170.667c-94.293 0-170.667-76.373-170.667-170.667s76.373-170.667 170.667-170.667z" />
<glyph unicode="&#xe915;" glyph-name="account_network" d="M554.667 256v-85.333h42.667c23.467 0 42.667-19.2 42.667-42.667h298.667v-85.333h-298.667c0-23.467-19.2-42.667-42.667-42.667h-170.667c-23.467 0-42.667 19.2-42.667 42.667h-298.667v85.333h298.667c0 23.467 19.2 42.667 42.667 42.667h42.667v85.333h-256v64c0 82.347 133.547 149.333 298.667 149.333s298.667-66.987 298.667-149.333v-64h-256zM512 853.334c82.347 0 149.333-66.987 149.333-149.333s-66.987-149.333-149.333-149.333c-82.347 0-149.333 66.987-149.333 149.333s66.987 149.333 149.333 149.333z" />
<glyph unicode="&#xe916;" glyph-name="account_remove" d="M640 341.334c113.92 0 341.333-56.747 341.333-170.667v-85.333h-682.667v85.333c0 113.92 227.413 170.667 341.333 170.667zM640 426.667c-94.293 0-170.667 76.373-170.667 170.667s76.373 170.667 170.667 170.667c94.293 0 170.667-76.373 170.667-170.667s-76.373-170.667-170.667-170.667zM213.333 529.494l90.453 90.88 60.587-60.587-90.88-90.453 90.88-90.453-60.587-60.587-90.453 90.88-90.453-90.88-60.587 60.587 90.88 90.453-90.88 90.453 60.587 60.587 90.453-90.88z" />
<glyph unicode="&#xe917;" glyph-name="account_search" d="M640 341.334c113.92 0 341.333-57.173 341.333-170.667v-85.333h-682.667v85.333c0 113.493 227.413 170.667 341.333 170.667zM640 426.667c-94.293 0-170.667 76.373-170.667 170.667s76.373 170.667 170.667 170.667c94.293 0 170.667-76.373 170.667-170.667s-76.373-170.667-170.667-170.667zM117.76 313.174c-16.64-16.64-43.947-16.64-60.587 0s-16.64 43.947 0 60.587l83.2 83.2c-8.107 16.64-12.373 35.413-12.373 55.040 0 70.827 57.173 128 128 128s128-57.173 128-128c0-70.827-57.173-128-128-128-19.627 0-38.4 4.267-55.040 12.373l-83.2-83.2zM256 554.667c-23.467 0-42.667-19.2-42.667-42.667s19.2-42.667 42.667-42.667c23.467 0 42.667 19.2 42.667 42.667s-19.2 42.667-42.667 42.667z" />
<glyph unicode="&#xe918;" glyph-name="account_star_variant" d="M384 341.334c113.92 0 341.333-56.747 341.333-170.667v-85.333h-682.667v85.333c0 113.92 227.413 170.667 341.333 170.667zM384 426.667c-94.293 0-170.667 76.373-170.667 170.667s76.373 170.667 170.667 170.667c94.293 0 170.667-76.373 170.667-170.667s-76.373-170.667-170.667-170.667zM810.667 372.054l-104.96-63.573 28.16 119.893-93.867 80.213 123.307 10.667 47.36 112.64 48.213-112.64 122.453-10.667-93.013-80.213 29.013-119.893-106.667 63.573z" />
<glyph unicode="&#xe919;" glyph-name="account_star" d="M640 341.334c-113.92 0-341.333-56.747-341.333-170.667v-85.333h682.667v85.333c0 113.92-227.413 170.667-341.333 170.667zM640 426.667c94.293 0 170.667 76.373 170.667 170.667s-76.373 170.667-170.667 170.667c-94.293 0-170.667-76.373-170.667-170.667s76.373-170.667 170.667-170.667zM213.333 372.054l104.533-63.573-27.733 119.893 93.867 80.213-123.307 10.667-47.36 112.64-48.213-112.64-122.453-10.667 93.013-80.213-29.013-119.893 106.667 63.573z" />
<glyph unicode="&#xe91a;" glyph-name="account_switch" d="M682.667 554.667c99.413 0 298.667-49.92 298.667-149.333v-106.667h-256v106.667c0 64-34.56 111.36-83.627 147.2l40.96 2.133zM341.333 554.667c99.413 0 298.667-49.92 298.667-149.333v-106.667h-597.333v106.667c0 99.413 199.253 149.333 298.667 149.333zM341.333 640c-70.827 0-128 57.173-128 128s57.173 128 128 128c70.827 0 128-57.173 128-128s-57.173-128-128-128zM682.667 640c-70.827 0-128 57.173-128 128s57.173 128 128 128c70.827 0 128-57.173 128-128s-57.173-128-128-128zM384 224v-96h256v96l138.667-138.667-138.667-138.667v96h-256v-96l-138.667 138.667 138.667 138.667z" />
<glyph unicode="&#xe91b;" glyph-name="cake_variant" d="M896 42.667v170.667c0 47.36-38.4 85.333-85.333 85.333h-42.667v128c0 47.36-38.4 85.333-85.333 85.333h-128v85.333h-85.333v-85.333h-128c-47.36 0-85.333-37.973-85.333-85.333v-128h-42.667c-47.36 0-85.333-37.973-85.333-85.333v-170.667h-85.333v-85.333h938.667v85.333zM512 640c46.933 0 85.333 38.4 85.333 85.333 0 16.213-4.267 31.147-12.373 43.947l-72.96 126.72-73.387-126.72c-7.68-12.8-11.947-27.733-11.947-43.947 0-46.933 38.4-85.333 85.333-85.333z" />
<glyph unicode="&#xe91c;" glyph-name="message_text_outline" d="M853.333 853.334c46.933 0 85.333-38.4 85.333-85.333v-512c0-46.933-38.4-85.333-85.333-85.333h-597.333l-170.667-170.667v768c0 47.36 38.4 85.333 85.333 85.333h682.667zM170.667 768v-561.92l49.92 49.92h632.747v512h-682.667zM256 640h512v-85.333h-512v85.333zM256 469.334h384v-85.333h-384v85.333z" />
<glyph unicode="&#xe91d;" glyph-name="twitter" d="M958.293 682.667c-32.853-14.933-68.267-24.747-104.96-29.44 37.547 22.613 66.56 58.453 80.213 101.547-35.413-21.333-74.667-36.267-116.053-44.8-33.707 36.693-81.067 58.027-134.827 58.027-100.267 0-182.187-81.92-182.187-183.040 0-14.507 1.707-28.587 4.693-41.813-151.893 7.68-287.147 80.64-377.173 191.147-15.787-26.88-24.747-58.453-24.747-91.733 0-63.573 32-119.893 81.493-151.893-30.293 0-58.453 8.533-83.2 21.333 0 0 0 0 0-1.28 0-88.747 63.147-162.987 146.773-179.627-15.36-4.267-31.573-6.4-48.213-6.4-11.52 0-23.040 1.28-34.133 3.413 23.040-72.107 90.027-125.867 170.667-127.147-62.293-49.493-141.227-78.507-227.413-78.507-14.507 0-29.013 0.853-43.52 2.56 81.067-52.053 177.493-82.347 280.747-82.347 336.213 0 520.96 279.040 520.96 520.96 0 8.107 0 15.787-0.427 23.893 35.84 25.6 66.56 58.027 91.307 95.147z" />
<glyph unicode="&#xe91e;" glyph-name="cake" d="M512 682.667c47.36 0 85.333 38.4 85.333 85.333 0 16.213-4.267 31.147-12.373 43.947l-72.96 126.72-72.96-126.72c-8.107-12.8-12.373-27.733-12.373-43.947 0-46.933 38.4-85.333 85.333-85.333zM708.267 256.427l-45.653 45.653-46.080-45.653c-55.467-55.467-152.747-55.893-208.64 0l-45.653 45.653-46.507-45.653c-27.733-27.733-64.853-43.093-104.107-43.093-31.147 0-59.733 9.813-83.627 26.027v-196.693c0-23.467 19.2-42.667 42.667-42.667h682.667c23.467 0 42.667 19.2 42.667 42.667v196.693c-23.893-16.213-52.48-26.027-83.627-26.027-39.253 0-76.373 15.36-104.107 43.093zM768 554.667h-213.333v85.333h-85.333v-85.333h-213.333c-70.827 0-128-57.173-128-128v-65.707c0-46.080 37.547-83.627 83.627-83.627 22.187 0 43.52 8.533 58.88 24.32l91.307 90.88 90.88-90.88c31.573-31.573 86.613-31.573 118.187 0l91.307 90.88 90.88-90.88c15.787-15.787 36.693-24.32 58.88-24.32 46.080 0 83.627 37.547 83.627 83.627v65.707c0.427 70.827-56.747 128-127.573 128z" />
<glyph unicode="&#xe91f;" glyph-name="domain" d="M512 640v170.667h-426.667v-768h853.333v597.333h-426.667zM256 128h-85.333v85.333h85.333v-85.333zM256 298.667h-85.333v85.333h85.333v-85.333zM256 469.334h-85.333v85.333h85.333v-85.333zM256 640h-85.333v85.333h85.333v-85.333zM426.667 128h-85.333v85.333h85.333v-85.333zM426.667 298.667h-85.333v85.333h85.333v-85.333zM426.667 469.334h-85.333v85.333h85.333v-85.333zM426.667 640h-85.333v85.333h85.333v-85.333zM853.333 128h-341.333v85.333h85.333v85.333h-85.333v85.333h85.333v85.333h-85.333v85.333h341.333v-426.667zM768 469.334h-85.333v-85.333h85.333v85.333zM768 298.667h-85.333v-85.333h85.333v85.333z" />
<glyph unicode="&#xe920;" glyph-name="group_add" d="M341.333 512h-128v128h-85.333v-128h-128v-85.333h128v-128h85.333v128h128v85.333zM768 469.334c70.827 0 127.573 57.173 127.573 128s-56.747 128-127.573 128c-13.653 0-26.88-2.133-38.827-5.973 24.32-34.56 38.4-76.373 38.4-122.027s-14.507-87.040-38.4-122.027c11.947-3.84 25.173-5.973 38.827-5.973zM554.667 469.334c70.827 0 127.573 57.173 127.573 128s-56.747 128-127.573 128c-70.827 0-128-57.173-128-128s57.173-128 128-128zM837.12 377.174c35.413-31.147 58.88-70.827 58.88-121.173v-85.333h128v85.333c0 65.707-101.12 106.24-186.88 121.173zM554.667 384c-85.333 0-256-42.667-256-128v-85.333h512v85.333c0 85.333-170.667 128-256 128z" />
<glyph unicode="&#xe921;" glyph-name="group" d="M682.667 469.334c70.827 0 127.573 57.173 127.573 128s-56.747 128-127.573 128c-70.827 0-128-57.173-128-128s57.173-128 128-128zM341.333 469.334c70.827 0 127.573 57.173 127.573 128s-56.747 128-127.573 128c-70.827 0-128-57.173-128-128s57.173-128 128-128zM341.333 384c-99.413 0-298.667-49.92-298.667-149.333v-106.667h597.333v106.667c0 99.413-199.253 149.333-298.667 149.333zM682.667 384c-12.373 0-26.453-0.853-41.387-2.133 49.493-35.84 84.053-84.053 84.053-147.2v-106.667h256v106.667c0 99.413-199.253 149.333-298.667 149.333z" />
<glyph unicode="&#xe922;" glyph-name="location_city" d="M640 469.334v256l-128 128-128-128v-85.333h-256v-597.333h768v426.667h-256zM298.667 128h-85.333v85.333h85.333v-85.333zM298.667 298.667h-85.333v85.333h85.333v-85.333zM298.667 469.334h-85.333v85.333h85.333v-85.333zM554.667 128h-85.333v85.333h85.333v-85.333zM554.667 298.667h-85.333v85.333h85.333v-85.333zM554.667 469.334h-85.333v85.333h85.333v-85.333zM554.667 640h-85.333v85.333h85.333v-85.333zM810.667 128h-85.333v85.333h85.333v-85.333zM810.667 298.667h-85.333v85.333h85.333v-85.333z" />
<glyph unicode="&#xe923;" glyph-name="mood_bad" d="M511.573 853.334c-235.52 0-426.24-191.147-426.24-426.667s190.72-426.667 426.24-426.667c235.947 0 427.093 191.147 427.093 426.667s-191.147 426.667-427.093 426.667zM512 85.334c-188.587 0-341.333 152.747-341.333 341.333s152.747 341.333 341.333 341.333 341.333-152.747 341.333-341.333-152.747-341.333-341.333-341.333zM661.333 469.334c35.413 0 64 28.587 64 64s-28.587 64-64 64-64-28.587-64-64 28.587-64 64-64zM362.667 469.334c35.413 0 64 28.587 64 64s-28.587 64-64 64-64-28.587-64-64 28.587-64 64-64zM512 341.334c-99.413 0-183.893-62.293-218.027-149.333h436.053c-34.133 87.040-118.613 149.333-218.027 149.333z" />
<glyph unicode="&#xe924;" glyph-name="mood" d="M511.573 853.334c-235.52 0-426.24-191.147-426.24-426.667s190.72-426.667 426.24-426.667c235.947 0 427.093 191.147 427.093 426.667s-191.147 426.667-427.093 426.667zM512 85.334c-188.587 0-341.333 152.747-341.333 341.333s152.747 341.333 341.333 341.333 341.333-152.747 341.333-341.333-152.747-341.333-341.333-341.333zM661.333 469.334c35.413 0 64 28.587 64 64s-28.587 64-64 64-64-28.587-64-64 28.587-64 64-64zM362.667 469.334c35.413 0 64 28.587 64 64s-28.587 64-64 64-64-28.587-64-64 28.587-64 64-64zM512 192c99.413 0 183.893 62.293 218.027 149.333h-436.053c34.133-87.040 118.613-149.333 218.027-149.333z" />
<glyph unicode="&#xe925;" glyph-name="notifications_active" d="M280.747 785.92l-61.013 61.013c-101.973-77.653-169.387-198.4-175.787-334.933h85.333c6.4 113.067 64.427 212.053 151.467 273.92zM852.053 512h85.333c-6.4 136.533-73.813 257.28-176.213 334.933l-61.013-61.013c87.467-61.867 145.493-160.853 151.893-273.92zM768 490.667c0 130.987-90.88 240.64-213.333 269.653v29.013c0 35.413-28.587 64-64 64s-64-28.587-64-64v-29.013c-122.453-29.013-213.333-138.667-213.333-269.653v-234.667l-85.333-85.333v-42.667h725.333v42.667l-85.333 85.333v234.667zM490.667-0c5.973 0 11.52 0.427 17.067 1.707 27.733 5.547 50.773 24.747 61.44 50.347 4.267 10.24 6.827 21.333 6.827 33.28h-170.667c0-46.933 38.4-85.333 85.333-85.333z" />
<glyph unicode="&#xe926;" glyph-name="notifications_none" d="M490.667-0c46.933 0 85.333 38.4 85.333 85.333h-170.667c0-46.933 38.4-85.333 85.333-85.333zM768 256v234.667c0 130.987-90.88 240.64-213.333 269.653v29.013c0 35.413-28.587 64-64 64s-64-28.587-64-64v-29.013c-122.453-29.013-213.333-138.667-213.333-269.653v-234.667l-85.333-85.333v-42.667h725.333v42.667l-85.333 85.333zM682.667 213.334h-384v277.333c0 106.24 85.76 192 192 192s192-85.76 192-192v-277.333z" />
<glyph unicode="&#xe927;" glyph-name="notifications_off" d="M490.667-0c46.933 0 85.333 38.4 85.333 85.333h-170.667c0-46.933 38.4-85.333 85.333-85.333zM768 490.667c0 130.987-90.88 240.64-213.333 269.653v29.013c0 35.413-28.587 64-64 64s-64-28.587-64-64v-29.013c-21.76-5.12-42.24-13.653-61.867-23.893l403.2-402.773v157.013zM756.48 128l85.333-85.333 54.187 54.187-713.813 713.813-54.187-54.187 124.587-124.587c-24.747-41.387-39.253-89.6-39.253-141.227v-234.667l-85.333-85.333v-42.667h628.48z" />
<glyph unicode="&#xe928;" glyph-name="notifications_paused" d="M490.667-0c46.933 0 85.333 38.4 85.333 85.333h-170.667c0-46.933 38.4-85.333 85.333-85.333zM768 256v234.667c0 130.987-90.88 240.64-213.333 269.653v29.013c0 35.413-28.587 64-64 64s-64-28.587-64-64v-29.013c-122.453-29.013-213.333-138.667-213.333-269.653v-234.667l-85.333-85.333v-42.667h725.333v42.667l-85.333 85.333zM597.333 520.534l-119.467-145.067h119.467v-76.8h-213.333v76.8l119.467 145.067h-119.467v76.8h213.333v-76.8z" />
<glyph unicode="&#xe929;" glyph-name="notifications" d="M490.667-0c46.933 0 85.333 38.4 85.333 85.333h-170.667c0-46.933 38.4-85.333 85.333-85.333zM768 256v234.667c0 130.987-90.88 240.64-213.333 269.653v29.013c0 35.413-28.587 64-64 64s-64-28.587-64-64v-29.013c-122.453-29.013-213.333-138.667-213.333-269.653v-234.667l-85.333-85.333v-42.667h725.333v42.667l-85.333 85.333z" />
<glyph unicode="&#xe92a;" glyph-name="pages" d="M128 725.334v-256h213.333l-42.667 170.667 170.667-42.667v213.333h-256c-46.933 0-85.333-38.4-85.333-85.333zM341.333 384h-213.333v-256c0-46.933 38.4-85.333 85.333-85.333h256v213.333l-170.667-42.667 42.667 170.667zM725.333 213.334l-170.667 42.667v-213.333h256c46.933 0 85.333 38.4 85.333 85.333v256h-213.333l42.667-170.667zM810.667 810.667h-256v-213.333l170.667 42.667-42.667-170.667h213.333v256c0 46.933-38.4 85.333-85.333 85.333z" />
<glyph unicode="&#xe92b;" glyph-name="party_mode" d="M853.333 768h-135.253l-78.080 85.333h-256l-78.080-85.333h-135.253c-46.933 0-85.333-38.4-85.333-85.333v-512c0-46.933 38.4-85.333 85.333-85.333h682.667c46.933 0 85.333 38.4 85.333 85.333v512c0 46.933-38.4 85.333-85.333 85.333zM512 640c69.547 0 130.56-33.707 169.813-85.333h-169.813c-70.827 0-128-57.173-128-128 0-14.933 2.987-29.44 7.68-42.667h-88.747c-2.56 13.653-4.267 28.16-4.267 42.667 0 117.76 95.573 213.333 213.333 213.333zM512 213.334c-69.547 0-130.56 33.707-169.813 85.333h169.813c70.827 0 128 57.173 128 128 0 14.933-2.987 29.44-7.68 42.667h88.747c2.987-13.653 4.267-28.16 4.267-42.667 0-117.76-95.573-213.333-213.333-213.333z" />
<glyph unicode="&#xe92c;" glyph-name="people_outline" d="M704 384c-51.2 0-130.987-14.507-192-42.667-61.013 28.587-140.8 42.667-192 42.667-92.587 0-277.333-46.080-277.333-138.667v-117.333h938.667v117.333c0 92.587-184.747 138.667-277.333 138.667zM533.333 192h-426.667v53.333c0 23.040 109.227 74.667 213.333 74.667s213.333-51.627 213.333-74.667v-53.333zM917.333 192h-320v53.333c0 19.627-8.533 36.693-22.187 52.053 37.547 12.8 83.627 22.613 128.853 22.613 104.107 0 213.333-51.627 213.333-74.667v-53.333zM320 426.667c82.347 0 149.333 66.987 149.333 149.333s-66.987 149.333-149.333 149.333-149.333-66.987-149.333-149.333 66.987-149.333 149.333-149.333zM320 661.334c46.933 0 85.333-38.4 85.333-85.333s-38.4-85.333-85.333-85.333-85.333 38.4-85.333 85.333 38.4 85.333 85.333 85.333zM704 426.667c82.347 0 149.333 66.987 149.333 149.333s-66.987 149.333-149.333 149.333-149.333-66.987-149.333-149.333 66.987-149.333 149.333-149.333zM704 661.334c46.933 0 85.333-38.4 85.333-85.333s-38.4-85.333-85.333-85.333-85.333 38.4-85.333 85.333 38.4 85.333 85.333 85.333z" />
<glyph unicode="&#xe92d;" glyph-name="people" d="M682.667 469.334c70.827 0 127.573 57.173 127.573 128s-56.747 128-127.573 128c-70.827 0-128-57.173-128-128s57.173-128 128-128zM341.333 469.334c70.827 0 127.573 57.173 127.573 128s-56.747 128-127.573 128c-70.827 0-128-57.173-128-128s57.173-128 128-128zM341.333 384c-99.413 0-298.667-49.92-298.667-149.333v-106.667h597.333v106.667c0 99.413-199.253 149.333-298.667 149.333zM682.667 384c-12.373 0-26.453-0.853-41.387-2.133 49.493-35.84 84.053-84.053 84.053-147.2v-106.667h256v106.667c0 99.413-199.253 149.333-298.667 149.333z" />
<glyph unicode="&#xe92e;" glyph-name="person_add" d="M640 426.667c94.293 0 170.667 76.373 170.667 170.667s-76.373 170.667-170.667 170.667-170.667-76.373-170.667-170.667 76.373-170.667 170.667-170.667zM256 512v128h-85.333v-128h-128v-85.333h128v-128h85.333v128h128v85.333h-128zM640 341.334c-113.92 0-341.333-57.173-341.333-170.667v-85.333h682.667v85.333c0 113.493-227.413 170.667-341.333 170.667z" />
<glyph unicode="&#xe92f;" glyph-name="person_outline" d="M512 686.934c49.493 0 89.6-40.107 89.6-89.6s-40.107-89.6-89.6-89.6-89.6 40.107-89.6 89.6 40.107 89.6 89.6 89.6zM512 302.934c126.72 0 260.267-62.293 260.267-89.6v-46.933h-520.533v46.933c0 27.307 133.547 89.6 260.267 89.6zM512 768c-94.293 0-170.667-76.373-170.667-170.667s76.373-170.667 170.667-170.667 170.667 76.373 170.667 170.667-76.373 170.667-170.667 170.667zM512 384c-113.92 0-341.333-57.173-341.333-170.667v-128h682.667v128c0 113.493-227.413 170.667-341.333 170.667z" />
<glyph unicode="&#xe930;" glyph-name="person" d="M512 426.667c94.293 0 170.667 76.373 170.667 170.667s-76.373 170.667-170.667 170.667-170.667-76.373-170.667-170.667 76.373-170.667 170.667-170.667zM512 341.334c-113.92 0-341.333-57.173-341.333-170.667v-85.333h682.667v85.333c0 113.493-227.413 170.667-341.333 170.667z" />
<glyph unicode="&#xe931;" glyph-name="plus_one" d="M426.667 597.334h-85.333v-170.667h-170.667v-85.333h170.667v-170.667h85.333v170.667h170.667v85.333h-170.667zM618.667 679.254v-77.653l106.667 21.333v-452.267h85.333v554.667z" />
<glyph unicode="&#xe932;" glyph-name="poll" d="M128-0v597.333h170.667v-597.333h-170.667zM426.667-0v853.333h170.667v-853.333h-170.667zM725.333-0v341.333h170.667v-341.333h-170.667z" />
<glyph unicode="&#xe933;" glyph-name="public" d="M512 853.334c-235.52 0-426.667-191.147-426.667-426.667s191.147-426.667 426.667-426.667 426.667 191.147 426.667 426.667-191.147 426.667-426.667 426.667zM469.333 88.32c-168.533 20.907-298.667 164.267-298.667 338.347 0 26.453 3.413 51.627 8.96 76.373l204.373-204.373v-42.667c0-46.933 38.4-85.333 85.333-85.333v-82.347zM763.733 196.694c-11.093 34.56-42.667 59.307-81.067 59.307h-42.667v128c0 23.467-19.2 42.667-42.667 42.667h-256v85.333h85.333c23.467 0 42.667 19.2 42.667 42.667v85.333h85.333c46.933 0 85.333 38.4 85.333 85.333v17.493c125.013-50.773 213.333-173.227 213.333-316.16 0-88.747-34.133-169.387-89.6-229.973z" />
<glyph unicode="&#xe934;" glyph-name="school" d="M213.333 376.32v-170.667l298.667-162.987 298.667 162.987v170.667l-298.667-162.987-298.667 162.987zM512 810.667l-469.333-256 469.333-256 384 209.493v-294.827h85.333v341.333l-469.333 256z" />
<glyph unicode="&#xe935;" glyph-name="share" d="M768 252.587c-32.427 0-61.44-12.8-83.627-32.853l-304.213 177.067c2.133 9.813 3.84 19.627 3.84 29.867s-1.707 20.053-3.84 29.867l300.8 175.36c23.040-21.333 53.333-34.56 87.040-34.56 70.827 0 128 57.173 128 128s-57.173 128-128 128-128-57.173-128-128c0-10.24 1.707-20.053 3.84-29.867l-300.8-175.36c-23.040 21.333-53.333 34.56-87.040 34.56-70.827 0-128-57.173-128-128s57.173-128 128-128c33.707 0 64 13.227 87.040 34.56l303.787-177.493c-2.133-8.96-3.413-18.347-3.413-27.733 0-68.693 55.893-124.587 124.587-124.587s124.587 55.893 124.587 124.587-55.893 124.587-124.587 124.587z" />
<glyph unicode="&#xe936;" glyph-name="whatshot" d="M576 910.080s31.573-113.067 31.573-204.8c0-87.893-57.6-159.147-145.493-159.147-88.32 0-154.88 71.253-154.88 159.147l1.28 15.36c-86.187-102.4-137.813-235.093-137.813-379.307 0-188.587 152.747-341.333 341.333-341.333s341.333 152.747 341.333 341.333c0 229.973-110.507 435.2-277.333 568.747zM499.627 128c-75.947 0-137.387 59.733-137.387 133.973 0 69.12 44.8 117.76 119.893 133.12 75.52 15.36 153.6 51.627 197.12 110.080 16.64-55.040 25.173-113.067 25.173-172.373 0-113.067-91.733-204.8-204.8-204.8z" />
<glyph unicode="&#xe937;" glyph-name="calendar_clock" d="M640 384h64v-120.32l104.107-60.16-32-55.467-136.107 78.507v157.44zM810.667 597.334h-597.333v-469.333h199.253c-18.347 38.827-28.587 82.347-28.587 128 0 165.12 133.547 298.667 298.667 298.667 45.653 0 89.173-10.24 128-28.587v71.253zM213.333 42.667c-47.36 0-85.333 38.4-85.333 85.333v597.333c0 47.36 37.973 85.333 85.333 85.333h42.667v85.333h85.333v-85.333h341.333v85.333h85.333v-85.333h42.667c46.933 0 85.333-38.4 85.333-85.333v-260.267c52.907-53.76 85.333-127.573 85.333-209.067 0-165.12-133.547-298.667-298.667-298.667-81.493 0-155.307 32.427-209.067 85.333h-260.267zM682.667 462.934c-114.347 0-206.933-92.587-206.933-206.933s92.587-206.933 206.933-206.933c114.347 0 206.933 92.587 206.933 206.933s-92.587 206.933-206.933 206.933z" />
<glyph unicode="&#xe938;" glyph-name="calendar_multiple_check" d="M896 213.334v384h-597.333v-384h597.333zM896 810.667c46.933 0 85.333-38.4 85.333-85.333v-512c0-46.933-38.4-85.333-85.333-85.333h-597.333c-47.36 0-85.333 38.4-85.333 85.333v512c0 46.933 38.4 85.333 85.333 85.333h42.667v85.333h85.333v-85.333h341.333v85.333h85.333v-85.333h42.667zM747.947 466.774l-189.44-189.44-114.347 114.347 45.227 45.227 69.12-69.12 144.213 144.213 45.227-45.227zM128 42.667h597.333v-85.333h-597.333c-47.36 0-85.333 38.4-85.333 85.333v512h85.333v-512z" />
<glyph unicode="&#xe939;" glyph-name="calendar_multiple" d="M896 213.334v384h-597.333v-384h597.333zM896 810.667c46.933 0 85.333-38.4 85.333-85.333v-512c0-46.933-38.4-85.333-85.333-85.333h-597.333c-47.36 0-85.333 38.4-85.333 85.333v512c0 46.933 38.4 85.333 85.333 85.333h42.667v85.333h85.333v-85.333h341.333v85.333h85.333v-85.333h42.667zM128 42.667h597.333v-85.333h-597.333c-47.36 0-85.333 38.4-85.333 85.333v512h85.333v-512zM810.667 298.667h-170.667v170.667h170.667v-170.667z" />
<glyph unicode="&#xe93a;" glyph-name="calendar_plus" d="M810.667 128v512h-597.333v-512h597.333zM682.667 896h85.333v-85.333h42.667c46.933 0 85.333-38.4 85.333-85.333v-597.333c0-46.933-38.4-85.333-85.333-85.333h-597.333c-47.36 0-85.333 38.4-85.333 85.333v597.333c0 47.36 37.973 85.333 85.333 85.333h42.667v85.333h85.333v-85.333h341.333v85.333zM469.333 554.667h85.333v-128h128v-85.333h-128v-128h-85.333v128h-128v85.333h128v128z" />
<glyph unicode="&#xe93b;" glyph-name="close_box_outline" d="M810.667 810.667h-597.333c-46.933 0-85.333-38.4-85.333-85.333v-597.333c0-46.933 38.4-85.333 85.333-85.333h597.333c46.933 0 85.333 38.4 85.333 85.333v597.333c0 46.933-38.4 85.333-85.333 85.333zM810.667 128h-597.333v597.333h597.333v-597.333zM725.333 580.267l-153.6-153.6 153.6-153.6-59.733-59.733-153.6 153.6-153.6-153.6-59.733 59.733 153.6 153.6-153.6 153.6 59.733 59.733 153.6-153.6 153.6 153.6 59.733-59.733z" />
<glyph unicode="&#xe93c;" glyph-name="close_box" d="M810.667 810.667h-597.333c-46.933 0-85.333-38.4-85.333-85.333v-597.333c0-46.933 38.4-85.333 85.333-85.333h597.333c46.933 0 85.333 38.4 85.333 85.333v597.333c0 46.933-38.4 85.333-85.333 85.333zM665.6 213.334l-153.6 153.6-153.6-153.6-59.733 59.733 153.6 153.6-153.6 153.6 59.733 59.733 153.6-153.6 153.6 153.6 59.733-59.733-153.6-153.6 153.6-153.6-59.733-59.733z" />
<glyph unicode="&#xe93d;" glyph-name="close_circle_outline" d="M512 85.334c-188.16 0-341.333 153.173-341.333 341.333s153.173 341.333 341.333 341.333c188.16 0 341.333-153.173 341.333-341.333s-153.173-341.333-341.333-341.333zM512 853.334c-235.947 0-426.667-190.72-426.667-426.667s190.72-426.667 426.667-426.667c235.947 0 426.667 190.72 426.667 426.667s-190.72 426.667-426.667 426.667zM622.507 597.334l-110.507-110.507-110.507 110.507-60.16-60.16 110.507-110.507-110.507-110.507 60.16-60.16 110.507 110.507 110.507-110.507 60.16 60.16-110.507 110.507 110.507 110.507-60.16 60.16z" />
<glyph unicode="&#xe93e;" glyph-name="close_circle" d="M512 853.334c235.947 0 426.667-190.72 426.667-426.667s-190.72-426.667-426.667-426.667c-235.947 0-426.667 190.72-426.667 426.667s190.72 426.667 426.667 426.667zM665.173 640l-153.173-153.173-153.173 153.173-60.16-60.16 153.173-153.173-153.173-153.173 60.16-60.16 153.173 153.173 153.173-153.173 60.16 60.16-153.173 153.173 153.173 153.173-60.16 60.16z" />
<glyph unicode="&#xe93f;" glyph-name="close_network" d="M622.507 682.667l-110.507-110.507-110.507 110.507-60.16-60.16 110.507-110.507-110.507-110.507 60.16-60.16 110.507 110.507 110.507-110.507 60.16 60.16-110.507 110.507 110.507 110.507-60.16 60.16zM725.333 810.667c46.933 0 85.333-38.4 85.333-85.333v-426.667c0-46.933-38.4-85.333-85.333-85.333h-170.667v-85.333h42.667c23.467 0 42.667-19.2 42.667-42.667h298.667v-85.333h-298.667c0-23.467-19.2-42.667-42.667-42.667h-170.667c-23.467 0-42.667 19.2-42.667 42.667h-298.667v85.333h298.667c0 23.467 19.2 42.667 42.667 42.667h42.667v85.333h-170.667c-47.36 0-85.333 38.4-85.333 85.333v426.667c0 46.933 38.4 85.333 85.333 85.333h426.667z" />
<glyph unicode="&#xe940;" glyph-name="adb" d="M213.333 256c0-165.12 133.547-298.667 298.667-298.667s298.667 133.547 298.667 298.667v170.667h-597.333v-170.667zM687.787 752.214l89.6 89.6-34.987 35.413-98.133-98.56c-40.107 20.053-84.48 32-132.267 32s-92.16-11.947-131.84-32l-98.56 98.56-34.987-35.413 89.6-89.6c-74.24-54.187-122.88-141.227-122.88-240.213v-42.667h597.333v42.667c0 98.987-48.64 186.027-122.88 240.213zM384 554.667c-23.467 0-42.667 19.2-42.667 42.667s19.2 42.667 42.667 42.667 42.667-19.2 42.667-42.667-19.2-42.667-42.667-42.667zM640 554.667c-23.467 0-42.667 19.2-42.667 42.667s19.2 42.667 42.667 42.667 42.667-19.2 42.667-42.667-19.2-42.667-42.667-42.667z" />
<glyph unicode="&#xe941;" glyph-name="airline_seat_flat_angled" d="M949.333 328.96l-29.44-80.64-527.36 190.72 88.747 241.493 365.227-131.84c89.6-32.427 135.68-130.56 102.827-219.733zM64 420.694l277.333-99.84v-192.853h341.333v69.547l192.853-69.547 29.44 80.64-811.52 292.693-29.44-80.64zM311.467 503.467c63.573 30.72 90.453 107.093 60.16 170.667-30.72 63.573-107.093 90.453-171.093 59.733-63.573-30.293-90.453-106.667-59.733-170.667 30.293-63.573 106.667-90.453 170.667-59.733z" />
<glyph unicode="&#xe942;" glyph-name="airline_seat_flat" d="M938.667 469.334v-85.333h-554.667v256h384c94.293 0 170.667-76.373 170.667-170.667zM85.333 341.334v-85.333h256v-85.333h341.333v85.333h256v85.333h-853.333zM304.64 422.4c49.493 50.773 48.64 131.413-1.707 180.907-50.773 49.493-131.413 48.64-180.907-1.707-49.493-50.773-48.64-131.413 1.707-180.907 50.773-49.493 131.413-48.64 180.907 1.707z" />
<glyph unicode="&#xe943;" glyph-name="airline_seat_individual_suite" d="M298.667 384c70.4 0 128 57.6 128 128s-57.6 128-128 128-128-57.6-128-128 57.6-128 128-128zM810.667 640h-341.333v-298.667h-341.333v298.667h-85.333v-426.667h938.667v256c0 94.293-76.373 170.667-170.667 170.667z" />
<glyph unicode="&#xe944;" glyph-name="airline_seat_legroom_extra" d="M170.667 426.667v384h-85.333v-384c0-117.76 95.573-213.333 213.333-213.333h256v85.333h-256c-70.827 0-128 57.173-128 128zM974.080 203.094c-16.213 30.72-55.040 41.387-86.613 26.88l-46.507-21.333-145.493 297.813c-14.507 29.013-43.947 47.787-76.373 47.787l-149.76 0.427v256h-256v-341.333c0-70.827 57.173-128 128-128h298.667l145.493-298.667 158.72 72.533c32.853 15.36 46.933 55.467 29.867 87.893z" />
<glyph unicode="&#xe945;" glyph-name="airline_seat_legroom_normal" d="M213.333 426.667v384h-85.333v-384c0-117.76 95.573-213.333 213.333-213.333h256v85.333h-256c-70.827 0-128 57.173-128 128zM874.667 170.667h-64v298.667c0 46.933-38.4 85.333-85.333 85.333h-213.333v256h-256v-341.333c0-70.4 57.6-128 128-128h298.667v-298.667h192c35.413 0 64 28.587 64 64s-28.587 64-64 64z" />
<glyph unicode="&#xe946;" glyph-name="airline_seat_legroom_reduced" d="M852.053 119.467c7.68-40.96-23.467-76.8-62.72-76.8h-192v128l42.667 170.667h-256c-70.4 0-128 57.6-128 128v341.333h256v-256h213.333c46.933 0 85.333-38.4 85.333-85.333l-85.333-298.667h61.44c31.147 0 59.307-20.907 65.28-51.2zM213.333 426.667v384h-85.333v-384c0-117.76 95.573-213.333 213.333-213.333h170.667v85.333h-170.667c-70.827 0-128 57.173-128 128z" />
<glyph unicode="&#xe947;" glyph-name="airline_seat_recline_extra" d="M228.267 698.027c-38.4 27.307-47.787 80.213-20.907 119.040 26.88 38.4 80.213 47.787 119.040 20.907 38.4-27.307 47.787-80.213 20.907-119.040-27.307-38.4-80.213-47.787-119.040-20.907zM682.667 128h-301.653c-63.147 0-116.907 46.080-126.293 108.373l-84.053 403.627h-85.333l84.907-416.427c16.213-104.107 105.813-180.907 211.2-180.907h301.227v85.333zM692.48 298.667h-208.213l-43.947 174.933c67.413-37.973 139.947-65.707 219.733-52.053v90.88c-69.547-13.227-146.773 11.52-200.107 53.333l-69.973 54.187c-9.813 7.68-20.907 12.8-32.427 16.213-13.653 3.84-28.16 5.12-42.24 2.56h-0.853c-52.48-9.387-87.467-59.307-78.507-111.36l57.6-252.587c11.947-60.587 64.427-104.107 125.867-104.107h292.267l162.987-128 64 64-246.187 192z" />
<glyph unicode="&#xe948;" glyph-name="airline_seat_recline_normal" d="M323.84 707.84c-33.28 33.28-33.28 87.467 0 120.747s87.467 33.28 120.747 0c33.28-33.28 33.28-87.467 0-120.747-33.707-33.707-87.467-33.707-120.747 0zM256 256v384h-85.333v-384c0-117.76 95.573-213.333 213.333-213.333h256v85.333h-256c-70.827 0-128 57.173-128 128zM853.333 82.347l-216.32 216.32h-146.347v157.013c59.733-49.067 153.6-92.16 234.667-92.16v92.16c-70.827-0.853-154.027 37.12-199.253 87.040l-59.733 66.133c-8.107 8.96-18.347 16.213-29.44 21.333-12.373 5.973-26.453 9.813-40.96 9.813h-1.28c-52.907 0-96-43.093-96-96v-245.333c0-70.827 57.173-128 128-128h216.32l149.333-149.333 61.013 61.013z" />
<glyph unicode="&#xe949;" glyph-name="bluetooth_audio" d="M607.573 426.24l98.987-98.987c11.947 30.72 18.773 64.427 18.773 99.413s-6.827 67.84-18.347 98.56l-99.413-98.987zM833.28 652.374l-53.76-53.76c26.88-51.627 41.813-109.653 41.813-171.52s-15.36-120.32-41.813-171.52l51.2-51.2c41.387 65.707 65.707 143.36 65.707 226.56-0.427 80.64-23.467 156.587-63.147 221.44zM670.293 609.707l-243.627 243.627h-42.667v-323.84l-195.84 195.84-60.16-60.16 238.507-238.507-238.507-238.507 60.16-60.16 195.84 195.84v-323.84h42.667l243.627 243.627-183.467 183.040 183.467 183.040zM469.333 689.92l80.213-80.213-80.213-80.213v160.427zM549.547 243.627l-80.213-80.213v160.427l80.213-80.213z" />
<glyph unicode="&#xe94a;" glyph-name="confirmation_number" d="M938.667 512v170.667c0 47.36-38.4 85.333-85.333 85.333h-682.667c-46.933 0-84.907-37.973-84.907-85.333v-170.667c46.933 0 84.907-38.4 84.907-85.333s-37.973-85.333-85.333-85.333v-170.667c0-46.933 38.4-85.333 85.333-85.333h682.667c46.933 0 85.333 38.4 85.333 85.333v170.667c-46.933 0-85.333 38.4-85.333 85.333s38.4 85.333 85.333 85.333zM554.667 192h-85.333v85.333h85.333v-85.333zM554.667 384h-85.333v85.333h85.333v-85.333zM554.667 576h-85.333v85.333h85.333v-85.333z" />
<glyph unicode="&#xe94b;" glyph-name="disc_full" d="M853.333 256h85.333v85.333h-85.333v-85.333zM853.333 640v-213.333h85.333v213.333h-85.333zM426.667 768c-188.587 0-341.333-152.747-341.333-341.333s152.747-341.333 341.333-341.333 341.333 152.747 341.333 341.333-152.747 341.333-341.333 341.333zM426.667 341.334c-46.933 0-85.333 38.4-85.333 85.333s38.4 85.333 85.333 85.333 85.333-38.4 85.333-85.333-38.4-85.333-85.333-85.333z" />
<glyph unicode="&#xe94c;" glyph-name="do_not_disturb_alt" d="M512 853.334c-234.667 0-426.667-192-426.667-426.667s192-426.667 426.667-426.667 426.667 192 426.667 426.667-192 426.667-426.667 426.667zM170.667 426.667c0 187.733 153.6 341.333 341.333 341.333 76.8 0 149.333-25.6 209.067-72.533l-477.867-477.867c-46.933 59.733-72.533 132.267-72.533 209.067zM512 85.334c-76.8 0-149.333 25.6-209.067 72.533l477.867 477.867c46.933-59.733 72.533-132.267 72.533-209.067 0-187.733-153.6-341.333-341.333-341.333z" />
<glyph unicode="&#xe94d;" glyph-name="do_not_disturb" d="M512 853.334c-235.52 0-426.667-191.147-426.667-426.667s191.147-426.667 426.667-426.667 426.667 191.147 426.667 426.667-191.147 426.667-426.667 426.667zM512 85.334c-188.587 0-341.333 152.747-341.333 341.333 0 78.933 26.88 151.467 72.107 209.067l478.293-478.293c-57.6-45.227-130.133-72.107-209.067-72.107zM781.227 217.6l-478.293 478.293c57.6 45.227 130.133 72.107 209.067 72.107 188.587 0 341.333-152.747 341.333-341.333 0-78.933-26.88-151.467-72.107-209.067z" />
<glyph unicode="&#xe94e;" glyph-name="drive_eta" d="M807.253 724.907c-8.533 25.173-32.427 43.093-60.587 43.093h-469.333c-28.16 0-51.627-17.92-60.587-43.093l-88.747-255.573v-341.333c0-23.467 19.2-42.667 42.667-42.667h42.667c23.467 0 42.667 19.2 42.667 42.667v42.667h512v-42.667c0-23.467 19.2-42.667 42.667-42.667h42.667c23.467 0 42.667 19.2 42.667 42.667v341.333l-88.747 255.573zM277.333 298.667c-35.413 0-64 28.587-64 64s28.587 64 64 64 64-28.587 64-64-28.587-64-64-64zM746.667 298.667c-35.413 0-64 28.587-64 64s28.587 64 64 64 64-28.587 64-64-28.587-64-64-64zM213.333 512l64 192h469.333l64-192h-597.333z" />
<glyph unicode="&#xe94f;" glyph-name="event_available" d="M705.28 466.774l-45.227 45.227-208.213-208.213-90.453 90.453-45.227-45.227 135.68-135.68 253.44 253.44zM810.667 810.667h-42.667v85.333h-85.333v-85.333h-341.333v85.333h-85.333v-85.333h-42.667c-47.36 0-84.907-38.4-84.907-85.333l-0.427-597.333c0-46.933 37.973-85.333 85.333-85.333h597.333c46.933 0 85.333 38.4 85.333 85.333v597.333c0 46.933-38.4 85.333-85.333 85.333zM810.667 128h-597.333v469.333h597.333v-469.333z" />
<glyph unicode="&#xe950;" glyph-name="event_busy" d="M397.227 213.334l104.107 104.107 104.107-104.107 45.227 45.227-104.107 104.107 104.107 104.107-45.227 45.227-104.107-104.107-104.107 104.107-45.227-45.227 104.107-104.107-104.107-104.107 45.227-45.227zM810.667 810.667h-42.667v85.333h-85.333v-85.333h-341.333v85.333h-85.333v-85.333h-42.667c-47.36 0-84.907-38.4-84.907-85.333l-0.427-597.333c0-46.933 37.973-85.333 85.333-85.333h597.333c46.933 0 85.333 38.4 85.333 85.333v597.333c0 46.933-38.4 85.333-85.333 85.333zM810.667 128h-597.333v469.333h597.333v-469.333z" />
<glyph unicode="&#xe951;" glyph-name="event_note" d="M725.333 512h-426.667v-85.333h426.667v85.333zM810.667 810.667h-42.667v85.333h-85.333v-85.333h-341.333v85.333h-85.333v-85.333h-42.667c-47.36 0-84.907-38.4-84.907-85.333l-0.427-597.333c0-46.933 37.973-85.333 85.333-85.333h597.333c46.933 0 85.333 38.4 85.333 85.333v597.333c0 46.933-38.4 85.333-85.333 85.333zM810.667 128h-597.333v469.333h597.333v-469.333zM597.333 341.334h-298.667v-85.333h298.667v85.333z" />
<glyph unicode="&#xe952;" glyph-name="folder_special" d="M853.333 682.667h-341.333l-85.333 85.333h-256c-46.933 0-85.333-38.4-85.333-85.333v-512c0-46.933 38.4-85.333 85.333-85.333h682.667c46.933 0 85.333 38.4 85.333 85.333v426.667c0 46.933-38.4 85.333-85.333 85.333zM579.413 170.667l-152.747 89.6-152.747-89.6 40.533 173.653-134.827 116.907 177.493 15.36 69.547 163.413 69.547-163.84 177.493-15.36-134.827-116.907 40.533-173.227z" />
<glyph unicode="&#xe953;" glyph-name="live_tv" d="M896 682.667h-323.84l140.373 140.373-29.867 30.293-170.667-170.667-170.667 170.667-30.293-30.293 140.8-140.373h-323.84c-46.933 0-85.333-37.973-85.333-85.333v-512c0-46.933 38.4-85.333 85.333-85.333h768c46.933 0 85.333 38.4 85.333 85.333v512c0 47.36-38.4 85.333-85.333 85.333zM896 85.334h-768v512h768v-512zM384 512v-341.333l298.667 170.667z" />
<glyph unicode="&#xe954;" glyph-name="mms" d="M853.333 853.334h-682.667c-46.933 0-84.907-38.4-84.907-85.333l-0.427-768 170.667 170.667h597.333c46.933 0 85.333 38.4 85.333 85.333v512c0 46.933-38.4 85.333-85.333 85.333zM213.333 341.334l149.333 192 106.667-128.427 149.333 192.427 192-256h-597.333z" />
<glyph unicode="&#xe955;" glyph-name="more" d="M938.667 810.667h-640c-29.44 0-52.48-14.933-67.84-37.547l-230.827-346.453 230.827-346.027c15.36-22.613 41.387-37.973 70.827-37.973h637.013c46.933 0 85.333 38.4 85.333 85.333v597.333c0 46.933-38.4 85.333-85.333 85.333zM384 362.667c-35.413 0-64 28.587-64 64s28.587 64 64 64 64-28.587 64-64-28.587-64-64-64zM597.333 362.667c-35.413 0-64 28.587-64 64s28.587 64 64 64 64-28.587 64-64-28.587-64-64-64zM810.667 362.667c-35.413 0-64 28.587-64 64s28.587 64 64 64 64-28.587 64-64-28.587-64-64-64z" />
<glyph unicode="&#xe956;" glyph-name="network_locked" d="M832 512c7.253 0 14.080-1.28 21.333-2.133v386.133l-810.667-810.667h554.667v128c0 37.973 16.64 71.68 42.667 95.147v11.52c0 105.813 86.187 192 192 192zM938.667 256v64c0 58.88-47.787 106.667-106.667 106.667s-106.667-47.787-106.667-106.667v-64c-23.467 0-42.667-19.2-42.667-42.667v-170.667c0-23.467 19.2-42.667 42.667-42.667h213.333c23.467 0 42.667 19.2 42.667 42.667v170.667c0 23.467-19.2 42.667-42.667 42.667zM896 256h-128v64c0 35.413 28.587 64 64 64s64-28.587 64-64v-64z" />
<glyph unicode="&#xe957;" glyph-name="ondemand_video" d="M896 810.667h-768c-47.36 0-85.333-37.973-85.333-85.333v-512c0-46.933 37.973-85.333 85.333-85.333h213.333v-85.333h341.333v85.333h213.333c46.933 0 84.907 38.4 84.907 85.333l0.427 512c0 47.36-38.4 85.333-85.333 85.333zM896 213.334h-768v512h768v-512zM682.667 469.334l-298.667-170.667v341.333z" />
<glyph unicode="&#xe958;" glyph-name="personal_video" d="M896 810.667h-768c-47.36 0-85.333-37.973-85.333-85.333v-512c0-46.933 37.973-85.333 85.333-85.333h213.333v-85.333h341.333v85.333h213.333c46.933 0 84.907 38.4 84.907 85.333l0.427 512c0 47.36-38.4 85.333-85.333 85.333zM896 213.334h-768v512h768v-512z" />
<glyph unicode="&#xe959;" glyph-name="phone_bluetooth_speaker" d="M627.627 533.334l97.707 97.707v-161.707h21.333l121.6 121.6-91.307 91.733 91.733 91.733-122.027 121.6h-21.333v-161.707l-97.707 97.707-30.293-30.293 119.040-119.040-119.040-119.040 30.293-30.293zM768 814.507l40.107-40.107-40.107-40.107v80.213zM768 631.040l40.107-40.107-40.107-40.107v80.213zM853.333 277.334c-53.333 0-104.533 8.533-152.32 24.32-14.933 4.693-31.573 1.28-43.52-10.24l-93.867-93.867c-120.747 61.44-219.733 160-281.173 281.173l93.867 94.293c11.947 11.093 15.36 27.733 10.667 42.667-15.787 47.787-24.32 98.987-24.32 152.32 0 23.467-19.2 42.667-42.667 42.667h-149.333c-23.467 0-42.667-19.2-42.667-42.667 0-400.64 324.693-725.333 725.333-725.333 23.467 0 42.667 19.2 42.667 42.667v149.333c0 23.467-19.2 42.667-42.667 42.667z" />
<glyph unicode="&#xe95a;" glyph-name="phone_forwarded" d="M768 469.334l213.333 213.333-213.333 213.333v-128h-170.667v-170.667h170.667v-128zM853.333 277.334c-53.333 0-104.533 8.533-152.32 24.32-14.933 4.693-31.573 1.28-43.52-10.24l-93.867-93.867c-120.747 61.44-219.733 160-281.173 281.173l93.867 94.293c11.947 11.093 15.36 27.733 10.667 42.667-15.787 47.787-24.32 98.987-24.32 152.32 0 23.467-19.2 42.667-42.667 42.667h-149.333c-23.467 0-42.667-19.2-42.667-42.667 0-400.64 324.693-725.333 725.333-725.333 23.467 0 42.667 19.2 42.667 42.667v149.333c0 23.467-19.2 42.667-42.667 42.667z" />
<glyph unicode="&#xe95b;" glyph-name="phone_in_talk" d="M853.333 277.334c-53.333 0-104.533 8.533-152.32 24.32-14.933 4.693-31.573 1.28-43.52-10.24l-93.867-93.867c-120.747 61.44-219.733 160-281.173 281.173l93.867 94.293c11.947 11.093 15.36 27.733 10.667 42.667-15.787 47.787-24.32 98.987-24.32 152.32 0 23.467-19.2 42.667-42.667 42.667h-149.333c-23.467 0-42.667-19.2-42.667-42.667 0-400.64 324.693-725.333 725.333-725.333 23.467 0 42.667 19.2 42.667 42.667v149.333c0 23.467-19.2 42.667-42.667 42.667zM810.667 426.667h85.333c0 212.053-171.947 384-384 384v-85.333c165.12 0 298.667-133.547 298.667-298.667zM640 426.667h85.333c0 117.76-95.573 213.333-213.333 213.333v-85.333c70.827 0 128-57.173 128-128z" />
<glyph unicode="&#xe95c;" glyph-name="phone_locked" d="M853.333 277.334c-53.333 0-104.533 8.533-152.32 24.32-14.933 4.693-31.573 1.28-43.52-10.24l-93.867-93.867c-120.747 61.44-219.733 160-281.173 281.173l93.867 94.293c11.947 11.093 15.36 27.733 10.667 42.667-15.787 47.787-24.32 98.987-24.32 152.32 0 23.467-19.2 42.667-42.667 42.667h-149.333c-23.467 0-42.667-19.2-42.667-42.667 0-400.64 324.693-725.333 725.333-725.333 23.467 0 42.667 19.2 42.667 42.667v149.333c0 23.467-19.2 42.667-42.667 42.667zM853.333 768v21.333c0 58.88-47.787 106.667-106.667 106.667s-106.667-47.787-106.667-106.667v-21.333c-23.467 0-42.667-19.2-42.667-42.667v-170.667c0-23.467 19.2-42.667 42.667-42.667h213.333c23.467 0 42.667 19.2 42.667 42.667v170.667c0 23.467-19.2 42.667-42.667 42.667zM819.2 768h-145.067v21.333c0 40.107 32.427 72.533 72.533 72.533s72.533-32.427 72.533-72.533v-21.333z" />
<glyph unicode="&#xe95d;" glyph-name="phone_missed" d="M277.333 704l234.667-234.667 298.667 298.667-42.667 42.667-256-256-192 192h149.333v64h-256v-256h64v149.333zM1011.627 227.414c-130.133 123.307-305.92 199.253-499.627 199.253s-369.493-75.947-499.627-199.253c-7.68-7.68-12.373-18.347-12.373-30.293s4.693-22.613 12.373-30.293l105.813-105.813c7.68-7.68 18.347-12.373 30.293-12.373 11.52 0 22.187 4.693 29.867 11.947 33.707 31.573 72.107 58.027 113.493 78.933 14.080 6.827 23.893 21.333 23.893 38.4v132.267c61.867 20.48 128 31.147 196.267 31.147s134.4-10.667 196.267-30.72v-132.267c0-16.64 9.813-31.573 23.893-38.4 41.813-20.907 79.787-47.787 113.92-78.933 7.68-7.68 18.347-11.947 29.867-11.947 11.947 0 22.613 4.693 30.293 12.373l105.813 105.813c7.68 7.68 12.373 18.347 12.373 30.293s-5.12 22.187-12.8 29.867z" />
<glyph unicode="&#xe95e;" glyph-name="phone_paused" d="M725.333 810.667h-85.333v-298.667h85.333v298.667zM853.333 277.334c-53.333 0-104.533 8.533-152.32 24.32-14.933 4.693-31.573 1.28-43.52-10.24l-93.867-93.867c-120.747 61.44-219.733 160-281.173 281.173l93.867 94.293c11.947 11.093 15.36 27.733 10.667 42.667-15.787 47.787-24.32 98.987-24.32 152.32 0 23.467-19.2 42.667-42.667 42.667h-149.333c-23.467 0-42.667-19.2-42.667-42.667 0-400.64 324.693-725.333 725.333-725.333 23.467 0 42.667 19.2 42.667 42.667v149.333c0 23.467-19.2 42.667-42.667 42.667zM810.667 810.667v-298.667h85.333v298.667h-85.333z" />
<glyph unicode="&#xe95f;" glyph-name="power" d="M683.093 640l-0.427 170.667h-85.333v-170.667h-170.667v170.667h-85.333v-170.667h-0.427c-42.24 0.427-84.907-42.24-84.907-84.907v-234.24l149.333-150.187v-128h213.333v128l149.333 149.76v234.667c0 42.667-42.667 85.333-84.907 84.907z" />
<glyph unicode="&#xe960;" glyph-name="sd_card" d="M768 853.334h-341.333l-255.147-256-0.853-512c0-46.933 38.4-85.333 85.333-85.333h512c46.933 0 85.333 38.4 85.333 85.333v682.667c0 46.933-38.4 85.333-85.333 85.333zM512 597.334h-85.333v170.667h85.333v-170.667zM640 597.334h-85.333v170.667h85.333v-170.667zM768 597.334h-85.333v170.667h85.333v-170.667z" />
<glyph unicode="&#xe961;" glyph-name="sim_card_alert" d="M768 853.334h-341.333l-255.147-256-0.853-512c0-46.933 38.4-85.333 85.333-85.333h512c46.933 0 85.333 38.4 85.333 85.333v682.667c0 46.933-38.4 85.333-85.333 85.333zM554.667 213.334h-85.333v85.333h85.333v-85.333zM554.667 384h-85.333v213.333h85.333v-213.333z" />
<glyph unicode="&#xe962;" glyph-name="sms_failed" d="M853.333 853.334h-682.667c-46.933 0-84.907-38.4-84.907-85.333l-0.427-768 170.667 170.667h597.333c46.933 0 85.333 38.4 85.333 85.333v512c0 46.933-38.4 85.333-85.333 85.333zM554.667 341.334h-85.333v85.333h85.333v-85.333zM554.667 512h-85.333v170.667h85.333v-170.667z" />
<glyph unicode="&#xe963;" glyph-name="sms" d="M853.333 853.334h-682.667c-46.933 0-84.907-38.4-84.907-85.333l-0.427-768 170.667 170.667h597.333c46.933 0 85.333 38.4 85.333 85.333v512c0 46.933-38.4 85.333-85.333 85.333zM384 469.334h-85.333v85.333h85.333v-85.333zM554.667 469.334h-85.333v85.333h85.333v-85.333zM725.333 469.334h-85.333v85.333h85.333v-85.333z" />
<glyph unicode="&#xe964;" glyph-name="sync_disabled" d="M426.667 667.734v89.173c-34.133-8.96-66.133-23.040-95.147-40.96l62.293-62.293c10.667 5.12 21.333 10.24 32.853 14.080zM122.027 707.84l100.693-100.693c-32.853-52.053-52.053-113.92-52.053-180.48 0-94.293 38.827-179.2 100.693-240.64l-100.693-100.693h256v256l-95.573-95.573c-46.080 46.507-75.093 110.080-75.093 180.907 0 42.667 10.667 82.773 29.013 118.187l344.747-344.747c-10.667-5.547-21.333-10.667-32.853-14.507v-89.173c34.133 8.96 66.133 23.040 95.147 40.96l100.693-100.693 54.187 54.187-670.293 671.147-54.613-54.187zM853.333 768h-256v-256l95.573 95.573c46.080-46.507 75.093-110.080 75.093-180.907 0-42.667-10.667-82.773-29.013-118.187l62.293-62.293c32.853 52.053 52.053 113.92 52.053 180.48 0 94.293-38.827 179.2-100.693 240.64l100.693 100.693z" />
<glyph unicode="&#xe965;" glyph-name="sync_problem" d="M128 426.667c0-94.293 38.827-179.2 100.693-240.64l-100.693-100.693h256v256l-95.573-95.573c-46.080 46.507-75.093 110.080-75.093 180.907 0 111.36 71.253 206.080 170.667 241.067v89.173c-147.2-37.973-256-171.093-256-330.24zM469.333 213.334h85.333v85.333h-85.333v-85.333zM896 768h-256v-256l95.573 95.573c46.080-46.507 75.093-110.080 75.093-180.907 0-111.36-71.253-206.080-170.667-241.067v-89.173c147.2 37.973 256 171.093 256 330.24 0 94.293-38.827 179.2-100.693 240.64l100.693 100.693zM469.333 384h85.333v256h-85.333v-256z" />
<glyph unicode="&#xe966;" glyph-name="sync" d="M512 768v128l-170.667-170.667 170.667-170.667v128c141.227 0 256-114.773 256-256 0-43.093-10.667-84.053-29.867-119.467l62.293-62.293c33.28 52.48 52.907 114.773 52.907 181.76 0 188.587-152.747 341.333-341.333 341.333zM512 170.667c-141.227 0-256 114.773-256 256 0 43.093 10.667 84.053 29.867 119.467l-62.293 62.293c-33.28-52.48-52.907-114.773-52.907-181.76 0-188.587 152.747-341.333 341.333-341.333v-128l170.667 170.667-170.667 170.667v-128z" />
<glyph unicode="&#xe967;" glyph-name="system_update" d="M725.333 895.574l-426.667 0.427c-46.933 0-85.333-38.4-85.333-85.333v-768c0-46.933 38.4-85.333 85.333-85.333h426.667c46.933 0 85.333 38.4 85.333 85.333v768c0 46.933-38.4 84.907-85.333 84.907zM725.333 128h-426.667v597.333h426.667v-597.333zM682.667 384h-128v213.333h-85.333v-213.333h-128l170.667-170.667 170.667 170.667z" />
<glyph unicode="&#xe968;" glyph-name="tap_and_play" d="M85.333 256v-85.333c117.76 0 213.333-95.573 213.333-213.333h85.333c0 165.12-133.547 298.667-298.667 298.667zM85.333 85.334v-128h128c0 70.827-57.173 128-128 128zM85.333 426.667v-85.333c212.053 0 384-171.947 384-384h85.333c0 259.413-209.92 469.333-469.333 469.333zM725.333 895.574l-426.667 0.427c-46.933 0-85.333-38.4-85.333-85.333v-314.453c29.44-6.827 58.027-15.787 85.333-27.307v256.427h426.667v-554.667h-129.28c22.187-53.333 35.84-110.507 40.533-170.667h88.747c46.933 0 85.333 38.4 85.333 85.333v725.333c0 46.933-38.4 84.907-85.333 84.907z" />
<glyph unicode="&#xe969;" glyph-name="time_to_leave" d="M807.253 724.907c-8.533 25.173-32.427 43.093-60.587 43.093h-469.333c-28.16 0-51.627-17.92-60.587-43.093l-88.747-255.573v-341.333c0-23.467 19.2-42.667 42.667-42.667h42.667c23.467 0 42.667 19.2 42.667 42.667v42.667h512v-42.667c0-23.467 19.2-42.667 42.667-42.667h42.667c23.467 0 42.667 19.2 42.667 42.667v341.333l-88.747 255.573zM277.333 298.667c-35.413 0-64 28.587-64 64s28.587 64 64 64 64-28.587 64-64-28.587-64-64-64zM746.667 298.667c-35.413 0-64 28.587-64 64s28.587 64 64 64 64-28.587 64-64-28.587-64-64-64zM213.333 512l64 192h469.333l64-192h-597.333z" />
<glyph unicode="&#xe96a;" glyph-name="vibration" d="M0 298.667h85.333v256h-85.333v-256zM128 213.334h85.333v426.667h-85.333v-426.667zM938.667 554.667v-256h85.333v256h-85.333zM810.667 213.334h85.333v426.667h-85.333v-426.667zM704 810.667h-384c-35.413 0-64-28.587-64-64v-640c0-35.413 28.587-64 64-64h384c35.413 0 64 28.587 64 64v640c0 35.413-28.587 64-64 64zM682.667 128h-341.333v597.333h341.333v-597.333z" />
<glyph unicode="&#xe96b;" glyph-name="voice_chat" d="M853.333 853.334h-682.667c-46.933 0-84.907-38.4-84.907-85.333l-0.427-768 170.667 170.667h597.333c46.933 0 85.333 38.4 85.333 85.333v512c0 46.933-38.4 85.333-85.333 85.333zM768 341.334l-170.667 136.533v-136.533h-341.333v341.333h341.333v-136.533l170.667 136.533v-341.333z" />
<glyph unicode="&#xe96c;" glyph-name="vpn_lock" d="M938.667 768v21.333c0 58.88-47.787 106.667-106.667 106.667s-106.667-47.787-106.667-106.667v-21.333c-23.467 0-42.667-19.2-42.667-42.667v-170.667c0-23.467 19.2-42.667 42.667-42.667h213.333c23.467 0 42.667 19.2 42.667 42.667v170.667c0 23.467-19.2 42.667-42.667 42.667zM904.533 768h-145.067v21.333c0 40.107 32.427 72.533 72.533 72.533s72.533-32.427 72.533-72.533v-21.333zM807.253 426.667c1.707-14.080 3.413-28.16 3.413-42.667 0-88.747-34.133-169.387-89.6-229.973-11.093 34.56-42.667 59.307-81.067 59.307h-42.667v128c0 23.467-19.2 42.667-42.667 42.667h-256v85.333h85.333c23.467 0 42.667 19.2 42.667 42.667v85.333h85.333c46.933 0 85.333 38.4 85.333 85.333v108.373c-40.533 12.8-83.2 19.627-128 19.627-235.52 0-426.667-191.147-426.667-426.667s191.147-426.667 426.667-426.667 426.667 191.147 426.667 426.667c0 14.507-0.853 28.587-2.133 42.667h-86.613zM426.667 45.654c-168.533 20.907-298.667 164.267-298.667 338.347 0 26.453 3.413 51.627 8.96 76.373l204.373-204.373v-42.667c0-46.933 38.4-85.333 85.333-85.333v-82.347z" />
<glyph unicode="&#xe96d;" glyph-name="wc" d="M234.667-0v320h-64v234.667c0 46.933 38.4 85.333 85.333 85.333h128c46.933 0 85.333-38.4 85.333-85.333v-234.667h-64v-320h-170.667zM768-0v256h128l-108.373 325.547c-11.947 34.987-44.373 58.453-81.067 58.453h-5.12c-36.693 0-69.547-23.467-81.067-58.453l-108.373-325.547h128v-256h128zM320 682.667c47.36 0 85.333 37.973 85.333 85.333s-37.973 85.333-85.333 85.333-85.333-37.973-85.333-85.333 37.973-85.333 85.333-85.333zM704 682.667c47.36 0 85.333 37.973 85.333 85.333s-37.973 85.333-85.333 85.333-85.333-37.973-85.333-85.333 37.973-85.333 85.333-85.333z" />
<glyph unicode="&#xe96e;" glyph-name="wifi" d="M42.667 554.667l85.333-85.333c212.053 212.053 555.947 212.053 768 0l85.333 85.333c-258.987 258.987-679.253 258.987-938.667 0zM384 213.334l128-128 128 128c-70.4 70.827-185.173 70.827-256 0zM213.333 384l85.333-85.333c117.76 117.76 308.907 117.76 426.667 0l85.333 85.333c-164.693 164.693-432.213 164.693-597.333 0z" />
<glyph unicode="&#xe96f;" glyph-name="arrow_all" d="M554.667 469.334h213.333l-64 64 60.587 60.587 167.253-167.253-167.253-167.253-60.587 60.587 64 64h-213.333v-213.333l64 64 60.587-60.587-167.253-167.253-167.253 167.253 60.587 60.587 64-64v213.333h-213.333l64-64-60.587-60.587-167.253 167.253 167.253 167.253 60.587-60.587-64-64h213.333v213.333l-64-64-60.587 60.587 167.253 167.253 167.253-167.253-60.587-60.587-64 64v-213.333z" />
<glyph unicode="&#xe970;" glyph-name="arrow_bottom_left" d="M810.667 665.174l-60.16 60.16-451.84-451.84v281.173h-85.333v-426.667h426.667v85.333h-281.173l451.84 451.84z" />
<glyph unicode="&#xe971;" glyph-name="arrow_bottom_right" d="M213.333 665.174l60.16 60.16 451.84-451.84v281.173h85.333v-426.667h-426.667v85.333h281.173l-451.84 451.84z" />
<glyph unicode="&#xe972;" glyph-name="arrow_collapse" d="M832 806.827l60.16-60.16-192-192h153.173v-85.333h-298.667v298.667h85.333v-153.173l192 192zM892.16 106.667l-60.16-60.16-192 192v-153.173h-85.333v298.667h298.667v-85.333h-153.173l192-192zM192 806.827l192-192v153.173h85.333v-298.667h-298.667v85.333h153.173l-192 192 60.16 60.16zM131.84 106.667l192 192h-153.173v85.333h298.667v-298.667h-85.333v153.173l-192-192-60.16 60.16z" />
<glyph unicode="&#xe973;" glyph-name="arrow_down_bold_circle_outline" d="M512 213.334l-213.333 213.333h128v170.667h170.667v-170.667h128l-213.333-213.333zM512 853.334c235.52 0 426.667-191.147 426.667-426.667s-191.147-426.667-426.667-426.667c-235.52 0-426.667 191.147-426.667 426.667s191.147 426.667 426.667 426.667zM512 768c-188.587 0-341.333-152.747-341.333-341.333s152.747-341.333 341.333-341.333c188.587 0 341.333 152.747 341.333 341.333s-152.747 341.333-341.333 341.333z" />
<glyph unicode="&#xe974;" glyph-name="arrow_down_bold_circle" d="M512 853.334c235.52 0 426.667-191.147 426.667-426.667s-191.147-426.667-426.667-426.667c-235.52 0-426.667 191.147-426.667 426.667s191.147 426.667 426.667 426.667zM512 213.334l213.333 213.333h-128v170.667h-170.667v-170.667h-128l213.333-213.333z" />
<glyph unicode="&#xe975;" glyph-name="arrow_down_bold_hexagon_outline" d="M512 213.334l-213.333 213.333h128v170.667h170.667v-170.667h128l-213.333-213.333zM896 234.667c0-16.213-8.96-30.293-22.613-37.547l-337.067-189.44c-6.827-5.12-15.36-7.68-24.32-7.68s-17.493 2.56-24.32 7.68l-337.067 189.44c-13.653 7.253-22.613 21.333-22.613 37.547v384c0 16.213 8.96 30.293 22.613 37.547l337.067 189.44c6.827 5.12 15.36 7.68 24.32 7.68s17.493-2.56 24.32-7.68l337.067-189.44c13.653-7.253 22.613-21.333 22.613-37.547v-384zM512 761.6l-298.667-168.107v-333.653l298.667-168.107 298.667 168.107v333.653l-298.667 168.107z" />
<glyph unicode="&#xe976;" glyph-name="arrow_down_bold" d="M426.667 768h170.667v-384l149.333 149.333 103.253-103.253-337.92-337.92-337.92 337.92 103.253 103.253 149.333-149.333v384z" />
<glyph unicode="&#xe977;" glyph-name="arrow_down" d="M469.333 768h85.333v-512l234.667 234.667 60.587-60.587-337.92-337.92-337.92 337.92 60.587 60.587 234.667-234.667v512z" />
<glyph unicode="&#xe978;" glyph-name="arrow_expand" d="M405.333 380.16l60.16-60.16-192-192h153.173v-85.333h-298.667v298.667h85.333v-153.173l192 192zM465.493 533.334l-60.16-60.16-192 192v-153.173h-85.333v298.667h298.667v-85.333h-153.173l192-192zM618.667 380.16l192-192v153.173h85.333v-298.667h-298.667v85.333h153.173l-192 192 60.16 60.16zM558.507 533.334l192 192h-153.173v85.333h298.667v-298.667h-85.333v153.173l-192-192-60.16 60.16z" />
<glyph unicode="&#xe979;" glyph-name="arrow_left_bold_circle_outline" d="M298.667 426.667l213.333 213.333v-128h170.667v-170.667h-170.667v-128l-213.333 213.333zM938.667 426.667c0-235.52-191.147-426.667-426.667-426.667s-426.667 191.147-426.667 426.667c0 235.52 191.147 426.667 426.667 426.667s426.667-191.147 426.667-426.667zM853.333 426.667c0 188.587-152.747 341.333-341.333 341.333s-341.333-152.747-341.333-341.333c0-188.587 152.747-341.333 341.333-341.333s341.333 152.747 341.333 341.333z" />
<glyph unicode="&#xe97a;" glyph-name="arrow_left_bold_circle" d="M938.667 426.667c0-235.52-191.147-426.667-426.667-426.667s-426.667 191.147-426.667 426.667c0 235.52 191.147 426.667 426.667 426.667s426.667-191.147 426.667-426.667zM298.667 426.667l213.333-213.333v128h170.667v170.667h-170.667v128l-213.333-213.333z" />
<glyph unicode="&#xe97b;" glyph-name="arrow_left_bold_hexagon_outline" d="M298.667 426.667l213.333 213.333v-128h170.667v-170.667h-170.667v-128l-213.333 213.333zM896 234.667c0-16.213-8.96-30.293-22.613-37.547l-337.067-189.44c-6.827-5.12-15.36-7.68-24.32-7.68s-17.493 2.56-24.32 7.68l-337.067 189.44c-13.653 7.253-22.613 21.333-22.613 37.547v384c0 16.213 8.96 30.293 22.613 37.547l337.067 189.44c6.827 5.12 15.36 7.68 24.32 7.68s17.493-2.56 24.32-7.68l337.067-189.44c13.653-7.253 22.613-21.333 22.613-37.547v-384zM512 761.6l-298.667-168.107v-333.653l298.667-168.107 298.667 168.107v333.653l-298.667 168.107z" />
<glyph unicode="&#xe97c;" glyph-name="arrow_left_bold" d="M853.333 512v-170.667h-384l149.333-149.333-103.253-103.253-337.92 337.92 337.92 337.92 103.253-103.253-149.333-149.333h384z" />
<glyph unicode="&#xe97d;" glyph-name="arrow_right_bold_circle_outline" d="M725.333 426.667l-213.333-213.333v128h-170.667v170.667h170.667v128l213.333-213.333zM85.333 426.667c0 235.52 191.147 426.667 426.667 426.667s426.667-191.147 426.667-426.667c0-235.52-191.147-426.667-426.667-426.667s-426.667 191.147-426.667 426.667zM170.667 426.667c0-188.587 152.747-341.333 341.333-341.333s341.333 152.747 341.333 341.333c0 188.587-152.747 341.333-341.333 341.333s-341.333-152.747-341.333-341.333z" />
<glyph unicode="&#xe97e;" glyph-name="arrow_right_bold_circle" d="M85.333 426.667c0 235.52 191.147 426.667 426.667 426.667s426.667-191.147 426.667-426.667c0-235.52-191.147-426.667-426.667-426.667s-426.667 191.147-426.667 426.667zM725.333 426.667l-213.333 213.333v-128h-170.667v-170.667h170.667v-128l213.333 213.333z" />
<glyph unicode="&#xe97f;" glyph-name="arrow_right_bold_hexagon_outline" d="M725.333 426.667l-213.333-213.333v128h-170.667v170.667h170.667v128l213.333-213.333zM896 234.667c0-16.213-8.96-30.293-22.613-37.547l-337.067-189.44c-6.827-5.12-15.36-7.68-24.32-7.68s-17.493 2.56-24.32 7.68l-337.067 189.44c-13.653 7.253-22.613 21.333-22.613 37.547v384c0 16.213 8.96 30.293 22.613 37.547l337.067 189.44c6.827 5.12 15.36 7.68 24.32 7.68s17.493-2.56 24.32-7.68l337.067-189.44c13.653-7.253 22.613-21.333 22.613-37.547v-384zM512 761.6l-298.667-168.107v-333.653l298.667-168.107 298.667 168.107v333.653l-298.667 168.107z" />
<glyph unicode="&#xe980;" glyph-name="arrow_right_bold" d="M170.667 512v-170.667h384l-149.333-149.333 103.253-103.253 337.92 337.92-337.92 337.92-103.253-103.253 149.333-149.333h-384z" />
<glyph unicode="&#xe981;" glyph-name="arrow_top_left" d="M810.667 188.16l-60.16-60.16-451.84 451.84v-281.173h-85.333v426.667h426.667v-85.333h-281.173l451.84-451.84z" />
<glyph unicode="&#xe982;" glyph-name="arrow_top_right" d="M213.333 188.16l451.84 451.84h-281.173v85.333h426.667v-426.667h-85.333v281.173l-451.84-451.84-60.16 60.16z" />
<glyph unicode="&#xe983;" glyph-name="arrow_up_bold_circle_outline" d="M512 640l213.333-213.333h-128v-170.667h-170.667v170.667h-128l213.333 213.333zM512-0c-235.52 0-426.667 191.147-426.667 426.667s191.147 426.667 426.667 426.667c235.52 0 426.667-191.147 426.667-426.667s-191.147-426.667-426.667-426.667zM512 85.334c188.587 0 341.333 152.747 341.333 341.333s-152.747 341.333-341.333 341.333c-188.587 0-341.333-152.747-341.333-341.333s152.747-341.333 341.333-341.333z" />
<glyph unicode="&#xe984;" glyph-name="arrow_up_bold_circle" d="M512-0c-235.52 0-426.667 191.147-426.667 426.667s191.147 426.667 426.667 426.667c235.52 0 426.667-191.147 426.667-426.667s-191.147-426.667-426.667-426.667zM512 640l-213.333-213.333h128v-170.667h170.667v170.667h128l-213.333 213.333z" />
<glyph unicode="&#xe985;" glyph-name="arrow_up_bold_hexagon_outline" d="M512 640l213.333-213.333h-128v-170.667h-170.667v170.667h-128l213.333 213.333zM896 234.667c0-16.213-8.96-30.293-22.613-37.547l-337.067-189.44c-6.827-5.12-15.36-7.68-24.32-7.68s-17.493 2.56-24.32 7.68l-337.067 189.44c-13.653 7.253-22.613 21.333-22.613 37.547v384c0 16.213 8.96 30.293 22.613 37.547l337.067 189.44c6.827 5.12 15.36 7.68 24.32 7.68s17.493-2.56 24.32-7.68l337.067-189.44c13.653-7.253 22.613-21.333 22.613-37.547v-384zM512 761.6l-298.667-168.107v-333.653l298.667-168.107 298.667 168.107v333.653l-298.667 168.107z" />
<glyph unicode="&#xe986;" glyph-name="arrow_up_bold" d="M597.333 85.334h-170.667v384l-149.333-149.333-103.253 103.253 337.92 337.92 337.92-337.92-103.253-103.253-149.333 149.333v-384z" />
<glyph unicode="&#xe987;" glyph-name="arrow_up" d="M554.667 85.334h-85.333v512l-234.667-234.667-60.587 60.587 337.92 337.92 337.92-337.92-60.587-60.587-234.667 234.667v-512z" />
<glyph unicode="&#xe988;" glyph-name="chevron_double_down" d="M707.84 700.16l60.16-60.16-256-256-256 256 60.16 60.16 195.84-195.413 195.84 195.413zM707.84 444.16l60.16-60.16-256-256-256 256 60.16 60.16 195.84-195.413 195.84 195.413z" />
<glyph unicode="&#xe989;" glyph-name="chevron_double_left" d="M785.493 622.507l-60.16 60.16-256-256 256-256 60.16 60.16-195.413 195.84 195.413 195.84zM529.493 622.507l-60.16 60.16-256-256 256-256 60.16 60.16-195.413 195.84 195.413 195.84z" />
<glyph unicode="&#xe98a;" glyph-name="chevron_double_right" d="M238.507 622.507l60.16 60.16 256-256-256-256-60.16 60.16 195.413 195.84-195.413 195.84zM494.507 622.507l60.16 60.16 256-256-256-256-60.16 60.16 195.413 195.84-195.413 195.84z" />
<glyph unicode="&#xe98b;" glyph-name="wechat" d="M387.541 764.886c-173.867 0-314.795-122.24-314.795-273.024 0-87.296 47.403-164.779 120.875-214.784l-27.307-82.603c-3.627-20.608 12.203-12.288 12.203-12.288l91.904 56.363c36.224-12.629 75.691-19.755 117.12-19.755 5.717 0 11.264 0.469 16.896 0.725-6.656 20.736-10.496 42.539-10.496 65.109 0 133.931 125.099 242.517 279.467 242.517 8.832 0 17.536-0.469 26.197-1.152-19.413 134.656-151.595 238.891-312.064 238.891zM268.715 536.832c-23.083 0-41.771 18.688-41.771 41.771s18.688 41.771 41.771 41.771c23.040 0 41.771-18.688 41.771-41.771s-18.731-41.771-41.771-41.771zM512.811 536.832c-23.040 0-41.771 18.688-41.771 41.771s18.688 41.771 41.771 41.771c23.083 0 41.771-18.688 41.771-41.771s-18.688-41.771-41.771-41.771zM952.875 274.859c0 128.213-119.808 232.149-267.605 232.149s-267.605-103.936-267.605-232.149 119.808-232.149 267.605-232.149c41.899 0 81.365 8.576 116.651 23.467l70.315-42.795c0 0 12.544-6.571 9.685 9.685l-22.059 66.133c56.875 42.581 93.013 105.387 93.013 175.659zM587.989 329.686c-19.285 0-34.944 15.872-34.944 35.456s15.659 35.456 34.944 35.456c19.285 0 34.944-15.872 34.944-35.456s-15.616-35.456-34.944-35.456zM782.549 329.686c-19.285 0-34.944 15.872-34.944 35.456s15.659 35.456 34.944 35.456c19.285 0 34.944-15.872 34.944-35.456-0.043-19.584-15.659-35.456-34.944-35.456z" />
<glyph unicode="&#xe98c;" glyph-name="chevron_double_up" d="M316.16 153.174l-60.16 60.16 256 256 256-256-60.16-60.16-195.84 195.413-195.84-195.413zM316.16 409.174l-60.16 60.16 256 256 256-256-60.16-60.16-195.84 195.413-195.84-195.413z" />
<glyph unicode="&#xe98d;" glyph-name="hand_pointing_right" d="M896 554.667c23.467 0 42.667-19.2 42.667-42.667s-19.2-42.667-42.667-42.667h-190.72l-5.547-51.627-93.867-210.773c-8.533-21.333-31.147-36.267-57.173-36.267h-186.027c-34.133 0-64 31.147-64 64v277.333c0 16.64 6.827 31.573 18.347 42.667l179.2 209.067 32.853-31.573c8.533-8.107 13.653-19.2 13.653-31.573l-1.28-9.387-72.107-136.533h426.667zM85.333 170.667v341.333h128v-341.333h-128z" />
<glyph unicode="&#xe98e;" glyph-name="hand_pointing_up" d="M384 810.667c0 23.467 19.2 42.667 42.667 42.667s42.667-19.2 42.667-42.667v-190.72l51.627-5.547 210.773-93.867c21.333-8.533 36.267-31.147 36.267-57.173v-186.027c0-34.133-31.147-64-64-64h-277.333c-16.64 0-31.573 6.827-42.667 18.347l-209.067 179.2 31.573 32.853c8.107 8.533 19.2 13.653 31.573 13.653l9.387-1.28 136.533-72.107v426.667zM768-0h-341.333v128h341.333v-128z" />
<glyph unicode="&#xe98f;" glyph-name="apps" d="M170.667 597.334h170.667v170.667h-170.667v-170.667zM426.667 85.334h170.667v170.667h-170.667v-170.667zM170.667 85.334h170.667v170.667h-170.667v-170.667zM170.667 341.334h170.667v170.667h-170.667v-170.667zM426.667 341.334h170.667v170.667h-170.667v-170.667zM682.667 768v-170.667h170.667v170.667h-170.667zM426.667 597.334h170.667v170.667h-170.667v-170.667zM682.667 341.334h170.667v170.667h-170.667v-170.667zM682.667 85.334h170.667v170.667h-170.667v-170.667z" />
<glyph unicode="&#xe990;" glyph-name="arrow_back" d="M853.333 469.334h-519.253l238.507 238.507-60.587 60.16-341.333-341.333 341.333-341.333 60.16 60.16-238.080 238.507h519.253v85.333z" />
<glyph unicode="&#xe991;" glyph-name="arrow_drop_down_circle" d="M512 853.334c-235.52 0-426.667-191.147-426.667-426.667s191.147-426.667 426.667-426.667 426.667 191.147 426.667 426.667-191.147 426.667-426.667 426.667zM512 341.334l-170.667 170.667h341.333l-170.667-170.667z" />
<glyph unicode="&#xe992;" glyph-name="arrow_drop_down" d="M298.667 512l213.333-213.333 213.333 213.333z" />
<glyph unicode="&#xe993;" glyph-name="arrow_drop_up" d="M298.667 341.334l213.333 213.333 213.333-213.333z" />
<glyph unicode="&#xe994;" glyph-name="arrow_forward" d="M512 768l-60.16-60.16 238.080-238.507h-519.253v-85.333h519.253l-238.080-238.507 60.16-60.16 341.333 341.333z" />
<glyph unicode="&#xe995;" glyph-name="cancel" d="M512 853.334c-235.947 0-426.667-190.72-426.667-426.667s190.72-426.667 426.667-426.667 426.667 190.72 426.667 426.667-190.72 426.667-426.667 426.667zM725.333 273.494l-60.16-60.16-153.173 153.173-153.173-153.173-60.16 60.16 153.173 153.173-153.173 153.173 60.16 60.16 153.173-153.173 153.173 153.173 60.16-60.16-153.173-153.173 153.173-153.173z" />
<glyph unicode="&#xe996;" glyph-name="check" d="M384 248.747l-177.92 177.92-60.587-60.16 238.507-238.507 512 512-60.16 60.16z" />
<glyph unicode="&#xe997;" glyph-name="chevron_left" d="M657.493 622.507l-60.16 60.16-256-256 256-256 60.16 60.16-195.413 195.84z" />
<glyph unicode="&#xe998;" glyph-name="chevron_right" d="M426.667 682.667l-60.16-60.16 195.413-195.84-195.413-195.84 60.16-60.16 256 256z" />
<glyph unicode="&#xe999;" glyph-name="close" d="M810.667 665.174l-60.16 60.16-238.507-238.507-238.507 238.507-60.16-60.16 238.507-238.507-238.507-238.507 60.16-60.16 238.507 238.507 238.507-238.507 60.16 60.16-238.507 238.507z" />
<glyph unicode="&#xe99a;" glyph-name="expand_less" d="M512 597.334l-256-256 60.16-60.16 195.84 195.413 195.84-195.413 60.16 60.16z" />
<glyph unicode="&#xe99b;" glyph-name="expand_more" d="M707.84 572.16l-195.84-195.413-195.84 195.413-60.16-60.16 256-256 256 256z" />
<glyph unicode="&#xe99c;" glyph-name="fullscreen_exit" d="M213.333 256h128v-128h85.333v213.333h-213.333v-85.333zM341.333 597.334h-128v-85.333h213.333v213.333h-85.333v-128zM597.333 128h85.333v128h128v85.333h-213.333v-213.333zM682.667 597.334v128h-85.333v-213.333h213.333v85.333h-128z" />
<glyph unicode="&#xe99d;" glyph-name="fullscreen" d="M298.667 341.334h-85.333v-213.333h213.333v85.333h-128v128zM213.333 512h85.333v128h128v85.333h-213.333v-213.333zM725.333 213.334h-128v-85.333h213.333v213.333h-85.333v-128zM597.333 725.334v-85.333h128v-128h85.333v213.333h-213.333z" />
<glyph unicode="&#xe99e;" glyph-name="menu" d="M128 170.667h768v85.333h-768v-85.333zM128 384h768v85.333h-768v-85.333zM128 682.667v-85.333h768v85.333h-768z" />
<glyph unicode="&#xe99f;" glyph-name="more_horiz" d="M256 512c-46.933 0-85.333-38.4-85.333-85.333s38.4-85.333 85.333-85.333 85.333 38.4 85.333 85.333-38.4 85.333-85.333 85.333zM768 512c-46.933 0-85.333-38.4-85.333-85.333s38.4-85.333 85.333-85.333 85.333 38.4 85.333 85.333-38.4 85.333-85.333 85.333zM512 512c-46.933 0-85.333-38.4-85.333-85.333s38.4-85.333 85.333-85.333 85.333 38.4 85.333 85.333-38.4 85.333-85.333 85.333z" />
<glyph unicode="&#xe9a0;" glyph-name="more_vert" d="M512 597.334c46.933 0 85.333 38.4 85.333 85.333s-38.4 85.333-85.333 85.333-85.333-38.4-85.333-85.333 38.4-85.333 85.333-85.333zM512 512c-46.933 0-85.333-38.4-85.333-85.333s38.4-85.333 85.333-85.333 85.333 38.4 85.333 85.333-38.4 85.333-85.333 85.333zM512 256c-46.933 0-85.333-38.4-85.333-85.333s38.4-85.333 85.333-85.333 85.333 38.4 85.333 85.333-38.4 85.333-85.333 85.333z" />
<glyph unicode="&#xe9a1;" glyph-name="refresh" d="M753.067 667.734c-61.867 61.867-146.773 100.267-241.067 100.267-188.587 0-340.907-152.747-340.907-341.333s152.32-341.333 340.907-341.333c159.147 0 291.84 108.8 329.813 256h-88.747c-34.987-99.413-129.707-170.667-241.067-170.667-141.227 0-256 114.773-256 256s114.773 256 256 256c70.827 0 133.973-29.44 180.053-75.947l-137.387-137.387h298.667v298.667l-100.267-100.267z" />
<glyph unicode="&#xe9a2;" glyph-name="unfold_less" d="M316.16 145.494l60.587-60.16 135.253 135.253 135.253-135.253 60.16 60.16-195.413 195.84-195.84-195.84zM707.84 707.84l-60.587 60.16-135.253-135.253-135.253 135.253-60.587-60.16 195.84-195.84 195.84 195.84z" />
<glyph unicode="&#xe9a3;" glyph-name="unfold_more" d="M512 689.92l135.253-135.253 60.16 60.16-195.413 195.84-195.84-195.84 60.587-60.16 135.253 135.253zM512 163.414l-135.253 135.253-60.16-60.16 195.413-195.84 195.84 195.84-60.587 60.16-135.253-135.253z" />
<glyph unicode="&#xe9a4;" glyph-name="car_wash" d="M213.333 384l64 192h469.333l64-192zM746.667 170.667c-35.413 0-64 28.587-64 64s28.587 64 64 64c35.413 0 64-28.587 64-64s-28.587-64-64-64zM277.333 170.667c-35.413 0-64 28.587-64 64s28.587 64 64 64c35.413 0 64-28.587 64-64s-28.587-64-64-64zM807.253 597.334c-8.533 24.747-32.427 42.667-60.587 42.667h-469.333c-28.16 0-52.053-17.92-60.587-42.667l-88.747-256v-341.333c0-23.467 19.2-42.667 42.667-42.667h42.667c23.467 0 42.667 19.2 42.667 42.667v42.667h512v-42.667c0-23.467 19.2-42.667 42.667-42.667h42.667c23.467 0 42.667 19.2 42.667 42.667v341.333zM298.667 725.334c35.413 0 64 28.587 64 64 0 42.667-64 115.2-64 115.2s-64-72.533-64-115.2c0-35.413 28.587-64 64-64zM512 725.334c35.413 0 64 28.587 64 64 0 42.667-64 115.2-64 115.2s-64-72.533-64-115.2c0-35.413 28.587-64 64-64zM725.333 725.334c35.413 0 64 28.587 64 64 0 42.667-64 115.2-64 115.2s-64-72.533-64-115.2c0-35.413 28.587-64 64-64z" />
<glyph unicode="&#xe9a5;" glyph-name="beenhere" d="M810.667 896h-597.333c-46.933 0-84.907-38.4-84.907-85.333l-0.427-551.68c0-29.44 14.933-55.467 37.547-70.827l346.453-230.827 346.027 230.827c22.613 15.36 37.547 41.387 37.547 70.827l0.427 551.68c0 46.933-38.4 85.333-85.333 85.333zM426.667 256l-213.333 213.333 60.16 60.16 153.173-152.747 323.84 323.84 60.16-60.587-384-384z" />
<glyph unicode="&#xe9a6;" glyph-name="directions_bike" d="M661.333 704c46.933 0 85.333 38.4 85.333 85.333s-38.4 85.333-85.333 85.333-85.333-38.4-85.333-85.333 38.4-85.333 85.333-85.333zM213.333 426.667c-119.467 0-213.333-93.867-213.333-213.333s93.867-213.333 213.333-213.333 213.333 93.867 213.333 213.333-93.867 213.333-213.333 213.333zM213.333 64c-81.067 0-149.333 68.267-149.333 149.333s68.267 149.333 149.333 149.333 149.333-68.267 149.333-149.333-68.267-149.333-149.333-149.333zM460.8 490.667l102.4 102.4 34.133-34.133c55.467-55.467 128-89.6 217.6-89.6v85.333c-64 0-115.2 25.6-153.6 64l-81.067 81.067c-21.333 17.067-42.667 25.6-68.267 25.6s-46.933-8.533-59.733-25.6l-119.467-119.467c-17.067-17.067-25.6-38.4-25.6-59.733 0-25.6 8.533-46.933 25.6-59.733l136.533-119.467v-213.333h85.333v264.533l-93.867 98.133zM810.667 426.667c-119.467 0-213.333-93.867-213.333-213.333s93.867-213.333 213.333-213.333 213.333 93.867 213.333 213.333-93.867 213.333-213.333 213.333zM810.667 64c-81.067 0-149.333 68.267-149.333 149.333s68.267 149.333 149.333 149.333 149.333-68.267 149.333-149.333-68.267-149.333-149.333-149.333z" />
<glyph unicode="&#xe9a7;" glyph-name="directions_boat" d="M853.333 42.667c-59.307 0-118.613 20.053-170.667 56.32-104.107-72.96-237.227-72.96-341.333 0-52.053-36.267-111.36-56.32-170.667-56.32h-85.333v-85.333h85.333c58.88 0 116.907 14.933 170.667 42.24 107.52-55.040 233.813-55.040 341.333 0 53.76-27.733 111.787-42.24 170.667-42.24h85.333v85.333h-85.333zM168.533 128h2.133c68.267 0 128.853 37.547 170.667 85.333 41.813-47.787 102.4-85.333 170.667-85.333s128.853 37.547 170.667 85.333c41.813-47.787 102.4-85.333 170.667-85.333h2.133l80.64 285.013c3.413 11.093 2.56 23.040-2.56 33.28s-14.507 17.92-25.6 21.333l-54.613 17.92v197.12c0 46.933-38.4 85.333-85.333 85.333h-128v128h-256v-128h-128c-46.933 0-85.333-38.4-85.333-85.333v-197.12l-55.040-17.92c-11.093-3.413-20.48-11.093-25.6-21.333s-6.4-22.187-2.56-33.28l81.067-285.013zM256 682.667h512v-169.387l-256 84.053-256-84.053v169.387z" />
<glyph unicode="&#xe9a8;" glyph-name="directions_bus" d="M170.667 256c0-37.547 16.64-71.253 42.667-94.72v-75.947c0-23.467 19.2-42.667 42.667-42.667h42.667c23.467 0 42.667 19.2 42.667 42.667v42.667h341.333v-42.667c0-23.467 19.2-42.667 42.667-42.667h42.667c23.467 0 42.667 19.2 42.667 42.667v75.947c26.027 23.467 42.667 57.173 42.667 94.72v426.667c0 149.333-152.747 170.667-341.333 170.667s-341.333-21.333-341.333-170.667v-426.667zM320 213.334c-35.413 0-64 28.587-64 64s28.587 64 64 64 64-28.587 64-64-28.587-64-64-64zM704 213.334c-35.413 0-64 28.587-64 64s28.587 64 64 64 64-28.587 64-64-28.587-64-64-64zM768 469.334h-512v213.333h512v-213.333z" />
<glyph unicode="&#xe9a9;" glyph-name="directions_car" d="M807.253 682.24c-8.533 25.173-32.427 43.093-60.587 43.093h-469.333c-28.16 0-51.627-17.92-60.587-43.093l-88.747-255.573v-341.333c0-23.467 19.2-42.667 42.667-42.667h42.667c23.467 0 42.667 19.2 42.667 42.667v42.667h512v-42.667c0-23.467 19.2-42.667 42.667-42.667h42.667c23.467 0 42.667 19.2 42.667 42.667v341.333l-88.747 255.573zM277.333 256c-35.413 0-64 28.587-64 64s28.587 64 64 64 64-28.587 64-64-28.587-64-64-64zM746.667 256c-35.413 0-64 28.587-64 64s28.587 64 64 64 64-28.587 64-64-28.587-64-64-64zM213.333 469.334l64 192h469.333l64-192h-597.333z" />
<glyph unicode="&#xe9aa;" glyph-name="directions_railway" d="M170.667 277.334c0-82.347 66.987-149.333 149.333-149.333l-64-64v-21.333h512v21.333l-64 64c82.347 0 149.333 66.987 149.333 149.333v448c0 149.333-152.747 170.667-341.333 170.667s-341.333-21.333-341.333-170.667v-448zM512 213.334c-46.933 0-85.333 38.4-85.333 85.333s38.4 85.333 85.333 85.333 85.333-38.4 85.333-85.333-38.4-85.333-85.333-85.333zM768 512h-512v213.333h512v-213.333z" />
<glyph unicode="&#xe9ab;" glyph-name="directions_run" d="M575.573 704.854c46.933 0 85.333 38.4 85.333 85.333s-38.4 85.333-85.333 85.333-85.333-38.4-85.333-85.333 38.4-85.333 85.333-85.333zM421.973 111.787l42.667 187.733 89.6-85.333v-256h85.333v320l-89.6 85.333 25.6 128c55.467-64 140.8-106.667 234.667-106.667v85.333c-81.067 0-149.333 42.667-183.467 102.4l-42.667 68.267c-17.067 25.6-42.667 42.667-72.533 42.667-12.8 0-21.333-4.267-34.133-4.267l-221.867-93.867v-200.533h85.333v145.067l76.8 29.867-68.267-345.6-209.067 42.667-17.067-85.333 298.667-59.733z" />
<glyph unicode="&#xe9ac;" glyph-name="directions_subway" d="M512 853.334c-188.587 0-341.333-21.333-341.333-170.667v-405.333c0-82.347 66.987-149.333 149.333-149.333l-64-64v-21.333h512v21.333l-64 64c82.347 0 149.333 66.987 149.333 149.333v405.333c0 149.333-152.747 170.667-341.333 170.667zM320 213.334c-35.413 0-64 28.587-64 64s28.587 64 64 64 64-28.587 64-64-28.587-64-64-64zM469.333 469.334h-213.333v213.333h213.333v-213.333zM704 213.334c-35.413 0-64 28.587-64 64s28.587 64 64 64 64-28.587 64-64-28.587-64-64-64zM768 469.334h-213.333v213.333h213.333v-213.333z" />
<glyph unicode="&#xe9ad;" glyph-name="directions_transit" d="M512 853.334c-188.587 0-341.333-21.333-341.333-170.667v-405.333c0-82.347 66.987-149.333 149.333-149.333l-64-64v-21.333h512v21.333l-64 64c82.347 0 149.333 66.987 149.333 149.333v405.333c0 149.333-152.747 170.667-341.333 170.667zM320 213.334c-35.413 0-64 28.587-64 64s28.587 64 64 64 64-28.587 64-64-28.587-64-64-64zM469.333 469.334h-213.333v213.333h213.333v-213.333zM704 213.334c-35.413 0-64 28.587-64 64s28.587 64 64 64 64-28.587 64-64-28.587-64-64-64zM768 469.334h-213.333v213.333h213.333v-213.333z" />
<glyph unicode="&#xe9ae;" glyph-name="directions_walk" d="M576 704c46.933 0 85.333 38.4 85.333 85.333s-38.4 85.333-85.333 85.333-85.333-38.4-85.333-85.333 38.4-85.333 85.333-85.333zM418.133 558.934l-119.467-601.6h89.6l76.8 341.333 89.6-85.333v-256h85.333v320l-89.6 85.333 25.6 128c55.467-64 140.8-106.667 234.667-106.667v85.333c-81.067 0-149.333 42.667-183.467 102.4l-42.667 68.267c-17.067 25.6-42.667 42.667-72.533 42.667-12.8 0-21.333-4.267-34.133-4.267l-221.867-93.867v-200.533h85.333v145.067l76.8 29.867z" />
<glyph unicode="&#xe9af;" glyph-name="directions" d="M926.293 456.96l-384 384c-16.64 16.64-43.52 16.64-60.16 0l-384-384c-16.64-16.64-16.64-43.52 0-60.16l384-384c16.64-16.64 43.52-16.64 60.16 0l384 384c16.64 16.213 16.64 43.093 0 60.16zM597.333 320v106.667h-170.667v-128h-85.333v170.667c0 23.467 19.2 42.667 42.667 42.667h213.333v106.667l149.333-149.333-149.333-149.333z" />
<glyph unicode="&#xe9b0;" glyph-name="flight" d="M896 256v85.333l-341.333 213.333v234.667c0 35.413-28.587 64-64 64s-64-28.587-64-64v-234.667l-341.333-213.333v-85.333l341.333 106.667v-234.667l-85.333-64v-64l149.333 42.667 149.333-42.667v64l-85.333 64v234.667l341.333-106.667z" />
<glyph unicode="&#xe9b1;" glyph-name="hotel" d="M298.667 384c70.827 0 128 57.173 128 128s-57.173 128-128 128-128-57.173-128-128 57.173-128 128-128zM810.667 640h-341.333v-298.667h-341.333v384h-85.333v-640h85.333v128h768v-128h85.333v384c0 94.293-76.373 170.667-170.667 170.667z" />
<glyph unicode="&#xe9b2;" glyph-name="layers_clear" d="M845.227 299.094l50.773 39.253-61.013 61.013-50.773-39.253 61.013-61.013zM826.027 500.48l69.973 54.187-384 298.667-124.16-96.853 335.787-336.213 102.4 80.213zM139.52 896l-54.187-54.187 180.053-180.053-137.387-107.093 69.547-54.187 314.453-244.48 89.6 69.547 61.013-61.013-150.613-116.907-314.453 244.48-69.547-53.76 384-298.667 211.2 164.267 161.28-161.28 54.187 54.187-799.147 799.147z" />
<glyph unicode="&#xe9b3;" glyph-name="layers" d="M511.573 147.627l-314.453 244.48-69.12-53.76 384-298.667 384 298.667-69.547 54.187-314.88-244.907zM512 256l384 298.667-384 298.667-384-298.667 69.547-54.187 314.453-244.48z" />
<glyph unicode="&#xe9b4;" glyph-name="local_activity" d="M853.333 426.667c0 46.933 38.4 85.333 85.333 85.333v170.667c0 46.933-38.4 85.333-85.333 85.333h-682.667c-46.933 0-84.907-38.4-84.907-85.333v-170.667c46.933 0 84.907-38.4 84.907-85.333s-37.973-85.333-85.333-85.333v-170.667c0-46.933 38.4-85.333 85.333-85.333h682.667c46.933 0 85.333 38.4 85.333 85.333v170.667c-46.933 0-85.333 38.4-85.333 85.333zM664.747 221.867l-152.747 98.133-152.747-98.133 46.080 175.787-140.373 114.773 180.907 10.667 66.133 168.107 65.707-168.533 180.907-10.667-140.373-114.773 46.507-175.36z" />
<glyph unicode="&#xe9b5;" glyph-name="local_airport" d="M896 256v85.333l-341.333 213.333v234.667c0 35.413-28.587 64-64 64s-64-28.587-64-64v-234.667l-341.333-213.333v-85.333l341.333 106.667v-234.667l-85.333-64v-64l149.333 42.667 149.333-42.667v64l-85.333 64v234.667l341.333-106.667z" />
<glyph unicode="&#xe9b6;" glyph-name="local_atm" d="M469.333 213.334h85.333v42.667h42.667c23.467 0 42.667 19.2 42.667 42.667v128c0 23.467-19.2 42.667-42.667 42.667h-128v42.667h170.667v85.333h-85.333v42.667h-85.333v-42.667h-42.667c-23.467 0-42.667-19.2-42.667-42.667v-128c0-23.467 19.2-42.667 42.667-42.667h128v-42.667h-170.667v-85.333h85.333v-42.667zM853.333 768h-682.667c-47.36 0-84.907-37.973-84.907-85.333l-0.427-512c0-47.36 37.973-85.333 85.333-85.333h682.667c47.36 0 85.333 37.973 85.333 85.333v512c0 47.36-37.973 85.333-85.333 85.333zM853.333 170.667h-682.667v512h682.667v-512z" />
<glyph unicode="&#xe9b7;" glyph-name="local_bar" d="M469.333 384v-256h-213.333v-85.333h512v85.333h-213.333v256l341.333 341.333v85.333h-768v-85.333l341.333-341.333zM320 640l-85.333 85.333h554.667l-85.333-85.333h-384z" />
<glyph unicode="&#xe9b8;" glyph-name="local_cafe" d="M853.333 810.667h-682.667v-426.667c0-94.293 76.373-170.667 170.667-170.667h256c94.293 0 170.667 76.373 170.667 170.667v128h85.333c47.36 0 85.333 37.973 85.333 85.333v128c0 47.36-37.973 85.333-85.333 85.333zM853.333 597.334h-85.333v128h85.333v-128zM85.333 42.667h768v85.333h-768v-85.333z" />
<glyph unicode="&#xe9b9;" glyph-name="local_car_wash" d="M725.333 725.334c35.413 0 64 28.587 64 64 0 42.667-64 115.2-64 115.2s-64-72.533-64-115.2c0-35.413 28.587-64 64-64zM512 725.334c35.413 0 64 28.587 64 64 0 42.667-64 115.2-64 115.2s-64-72.533-64-115.2c0-35.413 28.587-64 64-64zM298.667 725.334c35.413 0 64 28.587 64 64 0 42.667-64 115.2-64 115.2s-64-72.533-64-115.2c0-35.413 28.587-64 64-64zM807.253 596.907c-8.533 25.173-32.427 43.093-60.587 43.093h-469.333c-28.16 0-51.627-17.92-60.587-43.093l-88.747-255.573v-341.333c0-23.467 19.2-42.667 42.667-42.667h42.667c23.467 0 42.667 19.2 42.667 42.667v42.667h512v-42.667c0-23.467 19.2-42.667 42.667-42.667h42.667c23.467 0 42.667 19.2 42.667 42.667v341.333l-88.747 255.573zM277.333 170.667c-35.413 0-64 28.587-64 64s28.587 64 64 64 64-28.587 64-64-28.587-64-64-64zM746.667 170.667c-35.413 0-64 28.587-64 64s28.587 64 64 64 64-28.587 64-64-28.587-64-64-64zM213.333 384l64 192h469.333l64-192h-597.333z" />
<glyph unicode="&#xe9ba;" glyph-name="local_convenience_store" d="M810.667 640v128h-597.333v-128h-128v-554.667h341.333v170.667h170.667v-170.667h341.333v554.667h-128zM469.333 512h-85.333v-42.667h85.333v-42.667h-128v128h85.333v42.667h-85.333v42.667h128v-128zM682.667 426.667h-42.667v85.333h-85.333v128h42.667v-85.333h42.667v85.333h42.667v-213.333z" />
<glyph unicode="&#xe9bb;" glyph-name="local_dining" d="M345.6 369.494l120.747 120.747-299.52 299.093c-66.56-66.56-66.56-174.507 0-241.493l178.773-178.347zM634.88 446.72c65.28-30.293 157.013-8.96 224.853 58.88 81.493 81.493 97.28 198.4 34.56 261.12-62.293 62.293-179.2 46.933-261.12-34.56-67.84-67.84-89.173-159.573-58.88-224.853l-416.427-416.427 60.16-60.16 293.973 293.12 293.547-293.547 60.16 60.16-293.547 293.547 62.72 62.72z" />
<glyph unicode="&#xe9bc;" glyph-name="local_drink" d="M128 853.334l85.76-777.813c5.12-42.667 40.96-75.52 84.907-75.52h426.667c43.947 0 79.787 32.853 84.907 75.52l85.76 777.813h-768zM512 128c-70.827 0-128 57.173-128 128 0 85.333 128 230.4 128 230.4s128-145.067 128-230.4c0-70.827-57.173-128-128-128zM782.080 597.334h-540.16l-18.773 170.667h577.28l-18.347-170.667z" />
<glyph unicode="&#xe9bd;" glyph-name="local_florist" d="M512-0c212.053 0 384 171.947 384 384-212.053 0-384-171.947-384-384zM238.933 501.334c0-58.88 47.787-106.667 106.667-106.667 22.613 0 43.093 6.827 60.587 18.773l-0.853-8.107c0-58.88 47.787-106.667 106.667-106.667s106.667 47.787 106.667 106.667l-0.853 8.107c17.067-11.947 37.973-18.773 60.587-18.773 58.88 0 106.667 47.787 106.667 106.667 0 42.667-25.173 78.933-61.013 96 35.84 17.067 61.013 53.333 61.013 96 0 58.88-47.787 106.667-106.667 106.667-22.613 0-43.093-6.827-60.587-18.773l0.853 8.107c0 58.88-47.787 106.667-106.667 106.667s-106.667-47.787-106.667-106.667l0.853-8.107c-17.067 11.947-37.973 18.773-60.587 18.773-58.88 0-106.667-47.787-106.667-106.667 0-42.667 25.173-78.933 61.013-96-35.84-17.067-61.013-53.333-61.013-96zM512 704c58.88 0 106.667-47.787 106.667-106.667s-47.787-106.667-106.667-106.667-106.667 47.787-106.667 106.667 47.787 106.667 106.667 106.667zM128 384c0-212.053 171.947-384 384-384 0 212.053-171.947 384-384 384z" />
<glyph unicode="&#xe9be;" glyph-name="local_gas_station" d="M843.52 630.187l0.427 0.427-158.72 158.72-45.227-45.227 90.027-90.027c-40.107-15.36-68.693-53.76-68.693-99.413 0-58.88 47.787-106.667 106.667-106.667 15.36 0 29.44 3.413 42.667 8.96v-307.627c0-23.467-19.2-42.667-42.667-42.667s-42.667 19.2-42.667 42.667v192c0 46.933-38.4 85.333-85.333 85.333h-42.667v298.667c0 46.933-38.4 85.333-85.333 85.333h-256c-46.933 0-85.333-38.4-85.333-85.333v-682.667h426.667v320h64v-213.333c0-58.88 47.787-106.667 106.667-106.667s106.667 47.787 106.667 106.667v405.333c0 29.44-11.947 56.32-31.147 75.52zM512 512h-256v213.333h256v-213.333zM768 512c-23.467 0-42.667 19.2-42.667 42.667s19.2 42.667 42.667 42.667 42.667-19.2 42.667-42.667-19.2-42.667-42.667-42.667z" />
<glyph unicode="&#xe9bf;" glyph-name="local_grocery_store" d="M298.667 170.667c-46.933 0-84.907-38.4-84.907-85.333s37.973-85.333 84.907-85.333 85.333 38.4 85.333 85.333-38.4 85.333-85.333 85.333zM42.667 853.334v-85.333h85.333l153.6-323.84-57.6-104.533c-6.827-11.947-10.667-26.027-10.667-40.96 0-46.933 38.4-85.333 85.333-85.333h512v85.333h-494.080c-5.973 0-10.667 4.693-10.667 10.667l1.28 5.12 38.4 69.547h317.867c32 0 60.16 17.493 74.667 43.947l152.747 276.907c3.413 5.973 5.12 13.227 5.12 20.48 0 23.467-19.2 42.667-42.667 42.667h-631.040l-40.107 85.333h-139.52zM725.333 170.667c-46.933 0-84.907-38.4-84.907-85.333s37.973-85.333 84.907-85.333 85.333 38.4 85.333 85.333-38.4 85.333-85.333 85.333z" />
<glyph unicode="&#xe9c0;" glyph-name="local_hospital" d="M810.667 810.667h-597.333c-46.933 0-84.907-38.4-84.907-85.333l-0.427-597.333c0-46.933 38.4-85.333 85.333-85.333h597.333c46.933 0 85.333 38.4 85.333 85.333v597.333c0 46.933-38.4 85.333-85.333 85.333zM768 341.334h-170.667v-170.667h-170.667v170.667h-170.667v170.667h170.667v170.667h170.667v-170.667h170.667v-170.667z" />
<glyph unicode="&#xe9c1;" glyph-name="local_hotel" d="M298.667 384c70.827 0 128 57.173 128 128s-57.173 128-128 128-128-57.173-128-128 57.173-128 128-128zM810.667 640h-341.333v-298.667h-341.333v384h-85.333v-640h85.333v128h768v-128h85.333v384c0 94.293-76.373 170.667-170.667 170.667z" />
<glyph unicode="&#xe9c2;" glyph-name="local_laundry_service" d="M391.253 220.587c66.56-66.56 174.933-66.56 241.493 0s66.56 174.933 0 241.493l-241.493-241.493zM768 852.907l-512 0.427c-47.36 0-85.333-37.973-85.333-85.333v-682.667c0-47.36 37.973-85.333 85.333-85.333h512c47.36 0 85.333 37.973 85.333 85.333v682.667c0 47.36-37.973 84.907-85.333 84.907zM426.667 768c23.467 0 42.667-19.2 42.667-42.667s-19.2-42.667-42.667-42.667-42.667 19.2-42.667 42.667 19.2 42.667 42.667 42.667zM298.667 768c23.467 0 42.667-19.2 42.667-42.667s-19.2-42.667-42.667-42.667-42.667 19.2-42.667 42.667 19.2 42.667 42.667 42.667zM512 85.334c-141.227 0-256 114.773-256 256s114.773 256 256 256 256-114.773 256-256-114.773-256-256-256z" />
<glyph unicode="&#xe9c3;" glyph-name="local_library" d="M512 445.867c-100.693 93.867-235.52 151.467-384 151.467v-469.333c148.48 0 283.307-57.6 384-151.467 100.693 93.44 235.52 151.467 384 151.467v469.333c-148.48 0-283.307-57.6-384-151.467zM512 597.334c70.827 0 128 57.173 128 128s-57.173 128-128 128-128-57.173-128-128 57.173-128 128-128z" />
<glyph unicode="&#xe9c4;" glyph-name="local_mall" d="M810.667 682.667h-85.333c0 117.76-95.573 213.333-213.333 213.333s-213.333-95.573-213.333-213.333h-85.333c-46.933 0-84.907-38.4-84.907-85.333l-0.427-512c0-46.933 38.4-85.333 85.333-85.333h597.333c46.933 0 85.333 38.4 85.333 85.333v512c0 46.933-38.4 85.333-85.333 85.333zM512 810.667c70.827 0 128-57.173 128-128h-256c0 70.827 57.173 128 128 128zM512 384c-117.76 0-213.333 95.573-213.333 213.333h85.333c0-70.827 57.173-128 128-128s128 57.173 128 128h85.333c0-117.76-95.573-213.333-213.333-213.333z" />
<glyph unicode="&#xe9c5;" glyph-name="local_movies" d="M768 810.667v-85.333h-85.333v85.333h-341.333v-85.333h-85.333v85.333h-85.333v-768h85.333v85.333h85.333v-85.333h341.333v85.333h85.333v-85.333h85.333v768h-85.333zM341.333 213.334h-85.333v85.333h85.333v-85.333zM341.333 384h-85.333v85.333h85.333v-85.333zM341.333 554.667h-85.333v85.333h85.333v-85.333zM768 213.334h-85.333v85.333h85.333v-85.333zM768 384h-85.333v85.333h85.333v-85.333zM768 554.667h-85.333v85.333h85.333v-85.333z" />
<glyph unicode="&#xe9c6;" glyph-name="local_offer" d="M913.493 444.587l-384 384c-15.36 15.36-36.693 24.747-60.16 24.747h-298.667c-46.933 0-85.333-38.4-85.333-85.333v-298.667c0-23.467 9.387-44.8 25.173-60.587l384-384c15.36-15.36 36.693-24.747 60.16-24.747s44.8 9.387 60.16 25.173l298.667 298.667c15.787 15.36 25.173 36.693 25.173 60.16s-9.813 45.227-25.173 60.587zM234.667 640c-35.413 0-64 28.587-64 64s28.587 64 64 64 64-28.587 64-64-28.587-64-64-64z" />
<glyph unicode="&#xe9c7;" glyph-name="local_parking" d="M554.667 810.667h-298.667v-768h170.667v256h128c141.227 0 256 114.773 256 256s-114.773 256-256 256zM563.2 469.334h-136.533v170.667h136.533c46.933 0 85.333-38.4 85.333-85.333s-38.4-85.333-85.333-85.333z" />
<glyph unicode="&#xe9c8;" glyph-name="local_pharmacy" d="M896 725.334h-112.64l48.64 133.973-100.267 36.693-62.293-170.667h-541.44v-85.333l85.333-256-85.333-256v-85.333h768v85.333l-85.333 256 85.333 256v85.333zM682.667 341.334h-128v-128h-85.333v128h-128v85.333h128v128h85.333v-128h128v-85.333z" />
<glyph unicode="&#xe9c9;" glyph-name="local_phone" d="M282.453 478.294c61.44-120.747 160.427-219.307 281.173-281.173l93.867 93.867c11.52 11.52 28.587 15.36 43.52 10.24 47.787-15.787 99.413-24.32 152.32-24.32 23.467 0 42.667-19.2 42.667-42.667v-148.907c0-23.467-19.2-42.667-42.667-42.667-400.64 0-725.333 324.693-725.333 725.333 0 23.467 19.2 42.667 42.667 42.667h149.333c23.467 0 42.667-19.2 42.667-42.667 0-53.333 8.533-104.533 24.32-152.32 4.693-14.933 1.28-31.573-10.667-43.52l-93.867-93.867z" />
<glyph unicode="&#xe9ca;" glyph-name="local_pizza" d="M512 853.334c-152.32 0-288.853-65.707-383.573-170.667l383.573-682.667 383.573 682.667c-94.293 104.533-231.253 170.667-383.573 170.667zM298.667 640c0 46.933 38.4 85.333 85.333 85.333s85.333-38.4 85.333-85.333-38.4-85.333-85.333-85.333-85.333 38.4-85.333 85.333zM512 298.667c-46.933 0-85.333 38.4-85.333 85.333s38.4 85.333 85.333 85.333 85.333-38.4 85.333-85.333-38.4-85.333-85.333-85.333z" />
<glyph unicode="&#xe9cb;" glyph-name="local_play" d="M853.333 426.667c0 46.933 38.4 85.333 85.333 85.333v170.667c0 46.933-38.4 85.333-85.333 85.333h-682.667c-46.933 0-84.907-38.4-84.907-85.333v-170.667c46.933 0 84.907-38.4 84.907-85.333s-37.973-85.333-85.333-85.333v-170.667c0-46.933 38.4-85.333 85.333-85.333h682.667c46.933 0 85.333 38.4 85.333 85.333v170.667c-46.933 0-85.333 38.4-85.333 85.333zM664.747 221.867l-152.747 98.133-152.747-98.133 46.080 175.787-140.373 114.773 180.907 10.667 66.133 168.107 65.707-168.533 180.907-10.667-140.373-114.773 46.507-175.36z" />
<glyph unicode="&#xe9cc;" glyph-name="local_post_office" d="M853.333 768h-682.667c-46.933 0-84.907-38.4-84.907-85.333l-0.427-512c0-46.933 38.4-85.333 85.333-85.333h682.667c46.933 0 85.333 38.4 85.333 85.333v512c0 46.933-38.4 85.333-85.333 85.333zM853.333 597.334l-341.333-213.333-341.333 213.333v85.333l341.333-213.333 341.333 213.333v-85.333z" />
<glyph unicode="&#xe9cd;" glyph-name="local_printshop" d="M810.667 597.334h-597.333c-70.827 0-128-57.173-128-128v-256h170.667v-170.667h512v170.667h170.667v256c0 70.827-57.173 128-128 128zM682.667 128h-341.333v213.333h341.333v-213.333zM810.667 426.667c-23.467 0-42.667 19.2-42.667 42.667s19.2 42.667 42.667 42.667 42.667-19.2 42.667-42.667-19.2-42.667-42.667-42.667zM768 810.667h-512v-170.667h512v170.667z" />
<glyph unicode="&#xe9ce;" glyph-name="local_see" d="M648.533 426.667c0-75.405-61.128-136.533-136.533-136.533s-136.533 61.128-136.533 136.533c0 75.405 61.128 136.533 136.533 136.533s136.533-61.128 136.533-136.533zM384 853.334l-78.080-85.333h-135.253c-46.933 0-85.333-38.4-85.333-85.333v-512c0-46.933 38.4-85.333 85.333-85.333h682.667c46.933 0 85.333 38.4 85.333 85.333v512c0 46.933-38.4 85.333-85.333 85.333h-135.253l-78.080 85.333h-256zM512 213.334c-117.76 0-213.333 95.573-213.333 213.333s95.573 213.333 213.333 213.333 213.333-95.573 213.333-213.333-95.573-213.333-213.333-213.333z" />
<glyph unicode="&#xe9cf;" glyph-name="local_shipping" d="M853.333 597.334h-128v170.667h-597.333c-46.933 0-85.333-38.4-85.333-85.333v-469.333h85.333c0-70.827 57.173-128 128-128s128 57.173 128 128h256c0-70.827 57.173-128 128-128s128 57.173 128 128h85.333v213.333l-128 170.667zM256 149.334c-35.413 0-64 28.587-64 64s28.587 64 64 64 64-28.587 64-64-28.587-64-64-64zM832 533.334l83.627-106.667h-190.293v106.667h106.667zM768 149.334c-35.413 0-64 28.587-64 64s28.587 64 64 64 64-28.587 64-64-28.587-64-64-64z" />
<glyph unicode="&#xe9d0;" glyph-name="local_taxi" d="M807.253 682.24c-8.533 25.173-32.427 43.093-60.587 43.093h-106.667v85.333h-256v-85.333h-106.667c-28.16 0-51.627-17.92-60.587-43.093l-88.747-255.573v-341.333c0-23.467 19.2-42.667 42.667-42.667h42.667c23.467 0 42.667 19.2 42.667 42.667v42.667h512v-42.667c0-23.467 19.2-42.667 42.667-42.667h42.667c23.467 0 42.667 19.2 42.667 42.667v341.333l-88.747 255.573zM277.333 256c-35.413 0-64 28.587-64 64s28.587 64 64 64 64-28.587 64-64-28.587-64-64-64zM746.667 256c-35.413 0-64 28.587-64 64s28.587 64 64 64 64-28.587 64-64-28.587-64-64-64zM213.333 469.334l64 192h469.333l64-192h-597.333z" />
<glyph unicode="&#xe9d1;" glyph-name="map" d="M874.667 810.667l-6.827-1.28-227.84-88.32-256 89.6-240.64-81.067c-8.96-2.987-15.36-10.667-15.36-20.48v-645.12c0-11.947 9.387-21.333 21.333-21.333l6.827 1.28 227.84 88.32 256-89.6 240.64 81.067c8.96 2.987 15.36 10.667 15.36 20.48v645.12c0 11.947-9.387 21.333-21.333 21.333zM640 128l-256 90.027v507.307l256-90.027v-507.307z" />
<glyph unicode="&#xe9d2;" glyph-name="my_location" d="M512 597.334c-94.293 0-170.667-76.373-170.667-170.667s76.373-170.667 170.667-170.667 170.667 76.373 170.667 170.667-76.373 170.667-170.667 170.667zM893.44 469.334c-19.627 177.92-160.853 319.147-338.773 338.773v87.893h-85.333v-87.893c-177.92-19.627-319.147-160.853-338.773-338.773h-87.893v-85.333h87.893c19.627-177.92 160.853-319.147 338.773-338.773v-87.893h85.333v87.893c177.92 19.627 319.147 160.853 338.773 338.773h87.893v85.333h-87.893zM512 128c-165.12 0-298.667 133.547-298.667 298.667s133.547 298.667 298.667 298.667 298.667-133.547 298.667-298.667-133.547-298.667-298.667-298.667z" />
<glyph unicode="&#xe9d3;" glyph-name="navigation" d="M512 853.334l-320-780.373 30.293-30.293 289.707 128 289.707-128 30.293 30.293z" />
<glyph unicode="&#xe9d4;" glyph-name="person_pin" d="M810.667 853.334h-597.333c-47.36 0-85.333-38.4-85.333-85.333v-597.333c0-46.933 37.973-85.333 85.333-85.333h170.667l128-128 128 128h170.667c46.933 0 85.333 38.4 85.333 85.333v597.333c0 46.933-38.4 85.333-85.333 85.333zM512 712.534c63.573 0 115.2-51.627 115.2-115.2s-51.627-115.2-115.2-115.2c-63.573 0-115.2 51.627-115.2 115.2s51.627 115.2 115.2 115.2zM768 256h-512v38.4c0 85.333 170.667 132.267 256 132.267s256-46.933 256-132.267v-38.4z" />
<glyph unicode="&#xe9d5;" glyph-name="pin_drop" d="M768 597.334c0 141.227-114.773 256-256 256s-256-114.773-256-256c0-192 256-469.333 256-469.333s256 277.333 256 469.333zM426.667 597.334c0 46.933 38.4 85.333 85.333 85.333s85.333-38.4 85.333-85.333-37.973-85.333-85.333-85.333c-46.933 0-85.333 38.4-85.333 85.333zM213.333 85.334v-85.333h597.333v85.333h-597.333z" />
<glyph unicode="&#xe9d6;" glyph-name="place" d="M512 853.334c-165.12 0-298.667-133.547-298.667-298.667 0-224 298.667-554.667 298.667-554.667s298.667 330.667 298.667 554.667c0 165.12-133.547 298.667-298.667 298.667zM512 448c-58.88 0-106.667 47.787-106.667 106.667s47.787 106.667 106.667 106.667 106.667-47.787 106.667-106.667-47.787-106.667-106.667-106.667z" />
<glyph unicode="&#xe9d7;" glyph-name="rate_review" d="M853.333 853.334h-682.667c-46.933 0-84.907-38.4-84.907-85.333l-0.427-768 170.667 170.667h597.333c46.933 0 85.333 38.4 85.333 85.333v512c0 46.933-38.4 85.333-85.333 85.333zM256 341.334v105.387l293.547 293.547c8.533 8.533 21.76 8.533 30.293 0l75.52-75.52c8.533-8.533 8.533-21.76 0-30.293l-293.973-293.12h-105.387zM768 341.334h-320l85.333 85.333h234.667v-85.333z" />
<glyph unicode="&#xe9d8;" glyph-name="restaurant_menu" d="M345.6 369.494l120.747 120.747-299.52 299.093c-66.56-66.56-66.56-174.507 0-241.493l178.773-178.347zM634.88 446.72c65.28-30.293 157.013-8.96 224.853 58.88 81.493 81.493 97.28 198.4 34.56 261.12-62.293 62.293-179.2 46.933-261.12-34.56-67.84-67.84-89.173-159.573-58.88-224.853l-416.427-416.427 60.16-60.16 293.973 293.12 293.547-293.547 60.16 60.16-293.547 293.547 62.72 62.72z" />
</font>
</defs>
</svg>
